<?xml version="1.0" encoding="UTF-8"?>
<svg width="251px" height="396px" viewBox="0 0 251 396" version="1.1" xmlns="http://www.w3.org/2000/svg" xmlns:xlink="http://www.w3.org/1999/xlink">
    <title>Group 6</title>
    <defs>
        <polygon id="path-1" points="0.0818666667 0.309567114 246.142085 0.309567114 246.142085 395.987708 0.0818666667 395.987708"></polygon>
    </defs>
    <g id="Главная" stroke="none" stroke-width="1" fill="none" fill-rule="evenodd">
        <g id="-О-нас" transform="translate(-190, -2452)">
            <g id="Group-16" transform="translate(2, 2400)">
                <g id="Group-6" transform="translate(188, 52)">
                    <path d="M161.312847,153.539448 C166.040561,152.76146 170.582038,149.174736 176.078637,148.62815 C181.28657,148.109492 187.995028,147.1267 192.71742,148.735872 C192.363573,153.816066 174.260183,165.589616 169.633569,163.260972 C169.641551,163.901981 169.449995,164.476495 169.233164,165.011112 C165.830381,161.631852 162.122971,158.422818 159.385313,154.991692 C158.907753,154.3959 158.430193,153.809416 157.949972,153.226923 C158.899772,153.624561 160.009201,153.753561 161.312847,153.539448 M241.617457,131.884787 C238.654987,123.390755 225.650451,121.631306 217.586467,120.233587 C209.44932,118.8239 193.785611,106.841556 187.00266,115.93537 C183.08507,111.949679 182.168527,118.218798 178.261579,118.971518 C174.551508,119.688331 172.533517,114.68394 168.067863,117.414212 C163.344141,114.698569 159.433202,95.9656848 152.557134,100.359654 C145.909868,104.608665 151.671186,124.276464 152.044987,130.427223 C152.344293,135.339851 152.171361,143.550616 154.217287,148.775768 C150.484602,144.36717 146.851686,140.033046 143.806741,134.924924 C138.955314,126.788634 132.006082,118.589838 128.802836,109.68221 C126.943145,104.512912 126.33123,99.3156873 124.554014,94.2474619 C123.182525,90.3415638 120.220055,86.431676 120.770779,81.9313153 C114.913683,75.3762686 115.223631,67.9049252 111.852775,59.8484284 C110.756648,57.2272077 109.169658,51.4514788 107.239463,49.4473289 C105.390414,47.5269622 96.5149774,49.3755146 95.5305915,47.9977446 C93.6682397,45.3924826 91.9868021,38.548849 90.8042087,35.793309 C91.5917175,30.871372 93.5604894,26.9348863 91.2352101,25.0384577 C85.4685708,20.3359532 77.803663,13.3420416 70.3755398,13.0122279 C60.9068112,12.5933113 59.0205149,23.0289881 56.284188,30.3487237 C53.5438704,37.672449 48.719049,45.9324195 47.4247145,53.8426279 C46.2727169,60.8790961 48.1230964,76.160906 55.7520875,77.3205734 C64.5503695,78.6571167 68.7539635,68.2294193 69.4882622,61.0227247 C76.6835914,59.8098615 79.937386,76.3125139 81.2875911,81.1426882 C83.7525467,89.9811626 86.2680518,94.8033576 91.6755233,102.438278 C94.3213931,106.16996 94.7537248,109.901642 96.3021372,113.903293 C97.8638522,117.932871 101.234709,120.890555 102.596886,124.825711 C103.94177,128.707671 103.558658,132.47792 105.31592,136.426374 C107.098457,140.434674 107.991055,142.917586 108.730675,147.207824 C109.377177,150.960784 110.136751,155.566206 111.474983,159.206126 C112.971516,163.27959 113.461048,166.66284 114.602404,170.822748 C115.891418,175.527912 117.062039,177.357846 116.253246,182.70136 C115.74509,186.051362 115.561515,188.544913 116.001828,191.382906 C114.148788,196.733069 111.472323,201.424935 108.38614,202.539386 C98.5116846,206.103501 91.7340543,190.525125 87.4133982,184.83052 C80.3963227,175.582438 73.8222209,166.681459 67.0206461,157.204635 C59.8439404,147.209153 51.4979439,140.045015 42.0611413,132.062993 C37.1006343,127.867178 33.355977,128.919124 32.6376413,123.478528 C31.7410519,116.69607 29.2574728,116.241246 29.1803182,113.882014 C29.1071544,111.631834 29.8201691,104.028831 27.6452082,104.79618 C26.1526663,105.322818 25.6844178,115.762484 19.4654931,115.174671 C15.1089202,114.762404 14.5342516,103.464956 11.0197277,104.144532 C10.29075,104.2855 11.5970568,108.54382 11.3522906,109.242015 C8.57339564,106.91869 8.91393997,97.6054438 6.96113109,97.7224745 C5.59230253,97.803598 6.50086415,102.484824 6.25343741,104.365294 C5.91422334,103.79211 4.59062331,99.2678111 3.65013566,99.9008406 C2.39703895,100.743993 4.03590853,105.806899 4.70103417,107.357555 C4.00265225,106.833577 1.69200578,102.208206 0.698308071,102.851875 C-0.952533766,103.922439 2.79744459,109.261963 4.77419799,112.404502 C10.5514793,121.587419 21.2094525,123.628806 28.3874884,131.85021 C36.7148614,141.382889 40.137598,153.996931 46.6292242,164.66401 C49.5903636,169.528761 52.620676,174.440059 55.7347942,179.243636 C58.0441105,182.810411 62.1492659,185.776074 64.4931687,189.560952 C67.2095418,193.948272 67.7895313,199.462011 70.6615438,203.938434 C71.9665203,205.973172 76.4401554,209.666287 76.3763033,212.00557 C76.3297445,213.803586 71.8201927,216.493962 71.0473167,218.448906 C70.5684262,218.121752 68.9202449,217.045868 68.2950268,217.064486 C62.9114999,217.224073 58.1531911,214.406028 52.2349031,215.569685 C47.7599378,216.447415 42.6863594,217.987432 39.0042239,221.233703 C32.0071022,227.403081 28.1041449,242.30986 34.5784779,250.029894 C37.3227863,253.304093 43.2623582,255.810942 47.0362811,258.015906 C53.0317236,261.521507 54.6519697,260.445622 61.7395485,260.751498 C67.3891257,260.994869 71.2308914,262.803524 77.0148239,260.72756 C78.8705245,260.061283 80.5865486,259.160945 82.2427115,258.142246 L82.8612783,259.292604 C84.8273897,264.709262 89.0655703,268.99152 90.1444041,274.582394 C91.4693343,281.443316 91.1381018,285.52476 94.3333653,292.051879 C99.6477192,302.910462 97.5339499,314.061622 98.137884,326.289995 C98.7404878,338.462513 98.8828247,351.538029 98.8828247,364.132124 C98.8828247,368.417042 100.527015,379.58549 98.0061891,382.896926 C94.6180391,387.35207 91.4360781,384.612489 86.909233,385.330631 C83.812408,385.822692 79.2296923,385.704332 78.9556606,387.739069 C78.7614439,389.176684 86.9079027,389.916105 89.6961094,390.777876 C87.68743,392.442904 83.4213141,392.786016 84.1449708,393.895148 C84.4376261,394.343322 93.14013,393.206263 95.3470168,393.262118 C97.8665127,393.324623 99.1887825,393.513468 101.518053,393.388458 C108.875672,392.98949 104.799782,389.385478 108.201235,382.978049 C113.488984,373.021134 112.332995,363.229126 113.543524,352.213616 C114.956251,339.356202 118.249953,330.167966 117.052727,317.374387 C116.071001,306.901473 111.947223,293.758133 114.175393,283.317136 C116.319758,273.277768 123.453896,269.683065 130.979128,266.064424 C138.308812,267.36905 151.716415,256.267096 156.594446,252.192301 C164.722282,245.403193 171.374868,236.038081 178.462447,229.444468 C183.017227,225.206096 192.448709,220.982353 197.80164,216.068396 C200.436868,215.521809 202.30321,214.823615 203.227735,211.106562 C204.353128,206.568964 201.744505,201.813264 203.066775,197.443233 C204.275973,193.449561 208.242782,191.812462 210.860717,189.051603 C212.628621,188.039553 214.405837,187.036813 215.932965,185.596538 C222.10001,179.771604 229.153002,168.712207 233.062611,161.002812 C236.731444,153.76287 244.633136,140.530427 241.617457,131.884787" id="Fill-1" fill="#1D1D1B"></path>
                    <g id="Group-5" opacity="0.380394345" transform="translate(4.2893, 0)">
                        <mask id="mask-2" fill="white">
                            <use xlink:href="#path-1"></use>
                        </mask>
                        <g id="Clip-4"></g>
                        <path d="M221.3632,139.910221 C221.444533,140.12604 221.6592,139.146862 221.865867,138.049117 C221.9152,137.774681 221.965867,137.493583 222.013867,137.224476 C222.032533,136.970023 222.049867,136.72756 222.064533,136.511741 C222.093867,136.077439 222.108533,135.748382 222.0952,135.659123 C221.957867,134.855798 220.988533,134.409506 220.6632,133.37704 C220.464533,132.708268 220.529867,132.096781 220.4352,131.35607 C220.373867,130.993707 220.300533,130.584717 220.1912,130.098459 C220.132533,129.857328 220.068533,129.594882 219.9992,129.308456 C219.892533,129.040681 219.7512,128.764912 219.605867,128.459835 C218.7472,126.485493 216.7832,125.310479 214.8992,123.738466 C214.4832,123.325479 213.9952,122.841885 213.4552,122.308999 C212.981867,121.726821 212.1992,121.207258 211.457867,120.694355 C211.4832,120.643731 209.857867,119.809764 209.552533,119.661889 C209.3512,119.569966 208.7632,119.844402 208.5912,119.780456 C208.069867,119.559308 207.5392,119.179627 207.009867,118.789288 C206.4472,118.420264 205.829867,118.075221 205.280533,117.87006 C204.5992,117.595623 203.893867,117.518355 203.2312,117.4251 C202.549867,117.345167 201.9552,117.210613 201.173867,117.038758 C200.789867,116.945503 199.253867,116.644422 199.480533,116.727019 C198.8672,116.489885 198.792533,116.055583 197.9512,115.84909 C195.785867,115.250926 191.965867,114.939187 187.9472,114.511546 C183.8832,114.103889 180.344533,113.690902 175.384533,113.561677 C174.080533,113.537697 172.645867,113.930701 172.348533,113.914714 C170.6752,113.829452 168.9392,113.237949 167.3632,113.211305 C163.2992,113.144694 156.1632,114.143855 150.8272,113.349855 C149.5472,113.152687 149.184533,111.95103 147.652533,111.75253 C147.4552,111.725885 145.5552,111.79516 145.521867,111.761855 C145.0752,111.159694 153.341867,108.048972 155.104533,107.635986 C157.1912,107.088446 160.720533,106.794026 163.593867,106.289117 C164.357867,106.147902 164.621867,106.169217 165.709867,106.07463 C165.784533,106.067969 167.704533,105.885456 167.8272,105.874798 C168.9912,105.642993 168.925867,104.896952 170.005867,104.74508 C171.944533,104.46265 174.501867,104.880966 176.3312,104.659818 C177.925867,104.497288 179.1352,104.05366 180.632533,103.884469 C181.461867,103.80054 182.844533,104.094959 183.777867,104.01103 C184.137867,103.980389 183.5472,103.430184 183.8752,103.37956 C184.2512,103.316946 185.5152,103.75258 185.9352,103.723271 C189.1312,103.516778 192.172533,103.511449 194.572533,103.225023 C190.621867,101.409214 186.6752,101.716956 183.069867,101.649013 C177.241867,101.567748 172.1352,101.676989 164.8512,102.183231 C162.760533,102.376402 160.9112,102.546926 157.325867,102.878647 C153.813867,103.183724 150.732533,103.663321 146.544533,104.080305 C145.929867,104.138922 145.2072,104.471976 144.3792,104.417355 C142.596533,104.30012 143.392533,104.330761 140.025867,104.790375 C138.3952,105.012855 136.897867,104.964895 135.880533,104.699785 L64.7605333,86.2153047 L132.8912,82.998006 C134.5792,82.9194054 135.397867,83.4016671 134.964533,84.3075732 C134.8232,84.6099859 134.292533,84.9883349 133.520533,85.398657 L135.836533,102.219201 C139.373867,101.012214 148.305867,100.462009 147.612533,99.6000664 C146.580533,98.2731805 140.112533,99.3376201 135.800533,100.140946 L76.6765333,111.161026 L134.0472,87.4076369 C135.864533,86.6562678 137.2592,86.1793349 137.9112,85.994157 C142.352533,84.8058215 145.872533,84.777845 147.325867,84.4780966 C148.232533,84.3022443 148.737867,83.8959188 149.608533,83.6681101 C151.685867,83.1112443 155.012533,82.5930128 158.620533,82.1933483 C162.229867,81.7856906 166.121867,81.5112544 169.345867,81.2408148 C173.085867,80.9237477 178.5592,80.8051805 184.3592,81.1142544 C190.156533,81.4046772 196.2832,82.1280698 201.2672,83.0992544 C202.576533,83.9332208 200.9352,84.5500362 201.9312,85.5505295 C203.069867,86.7228785 201.585867,86.9506872 199.461867,87.0785799 C197.3352,87.2171302 194.561867,87.2797443 193.0392,87.9471839 C193.285867,88.3361906 195.856533,88.8464289 197.501867,89.1461772 C199.789867,89.5391805 199.8792,89.1235295 201.033867,89.2833953 C203.853867,89.7230262 206.937867,90.5077007 210.2632,91.2390866 C211.408533,91.5108584 212.4152,91.4295933 213.877867,91.8492409 C215.960533,92.4340832 216.956533,92.8936973 218.533867,93.425251 C221.041867,94.2778685 223.533867,94.9866067 225.757867,96.1043349 C228.808533,97.6443752 231.8912,100.152936 234.668533,102.570905 C235.276533,103.099795 235.9552,103.739258 236.677867,104.430677 C237.3912,105.182046 238.177867,105.962724 238.877867,106.839321 C240.3432,108.544556 241.6152,110.498915 242.5672,112.266764 C243.653867,114.242439 244.625867,116.613781 245.2792,118.882543 C245.905867,121.153969 246.204533,123.313489 246.1312,124.74562 C246.1032,126.334952 245.9232,127.110301 245.8272,127.443355 C245.720533,127.776409 245.6352,127.664503 245.557867,127.46467 C245.397867,127.061009 245.269867,126.320298 245.0352,127.96958 C244.744533,130.771228 244.9032,130.663318 245.184533,130.752577 C245.4312,130.823184 245.7832,131.105613 245.232533,134.306926 C245.117867,134.838479 244.8992,135.620489 244.601867,136.562365 C244.300533,137.506905 243.868533,138.516724 243.4032,139.661097 C242.833867,140.814795 242.1952,142.020449 241.5352,143.192798 L241.033867,144.061402 C240.836533,144.330509 240.641867,144.599617 240.4472,144.864728 C240.052533,145.386956 239.664533,145.898526 239.289867,146.391446 C238.905867,146.871043 238.537867,147.331989 238.1912,147.766291 C237.816533,148.161959 237.448533,148.510999 237.116533,148.834728 C236.448533,149.476855 235.896533,149.976436 235.5232,150.289506 C234.780533,151.023556 232.660533,152.179919 231.548533,152.659516 C230.197867,153.195066 229.9032,152.53562 229.545867,152.045365 C229.188533,151.521805 228.749867,151.051533 227.224533,151.509815 C225.9992,151.925466 223.8912,152.988573 221.376533,153.962422 C219.1272,154.825697 215.320533,155.645009 211.437867,157.590043 C209.3912,158.593201 211.168533,158.206858 208.348533,159.040825 C206.988533,159.436493 200.597867,162.465949 198.361867,163.551704 C197.356533,164.007321 196.444533,164.42164 195.532533,164.834627 C194.640533,165.243617 193.744533,165.64861 192.9072,166.201479 C192.4712,166.47858 191.793867,167.397808 191.484533,167.641603 C190.7432,168.18115 189.6272,168.555503 188.9072,169.133684 C187.288533,170.336674 185.145867,172.020593 182.9472,174.014919 C180.765867,176.034556 178.5472,178.38858 176.645867,180.751929 C176.4792,180.961087 176.308533,181.359419 176.152533,181.740432 C176.072533,181.930939 175.9952,182.116117 175.929867,182.27465 C175.860533,182.430519 175.724533,182.658328 175.6512,182.75558 C174.016533,184.851154 171.5392,187.560879 170.121867,190.14804 C168.7552,192.585993 166.9592,194.680234 163.8792,199.833241 C163.016533,201.286687 161.9352,203.871184 161.377867,204.829046 C160.501867,206.354432 159.5872,207.883815 158.6512,209.442506 C158.153867,209.463821 157.652533,209.486469 157.141867,209.509117 C156.881867,209.495795 156.6392,209.569066 156.356533,209.482472 C156.036533,209.241342 155.7152,208.998879 155.3912,208.753751 C154.0872,207.765248 152.740533,206.742107 151.337867,205.677667 C149.909867,204.615892 148.504533,203.491503 147.0392,202.320486 C145.5592,201.153466 144.013867,199.934489 142.389867,198.652899 C140.8752,197.352657 139.2112,196.448083 137.5152,195.049258 C136.913867,194.543016 136.289867,194.05809 135.693867,193.509217 L133.964533,191.726714 C132.8192,190.50907 131.6752,189.295422 130.5552,188.105754 C129.425867,186.91209 128.388533,185.682456 127.445867,184.400865 C126.976533,183.756073 126.516533,183.124603 126.068533,182.50912 C125.889867,182.25067 125.712533,181.996217 125.537867,181.745761 C125.3912,181.524613 125.244533,181.307462 125.101867,181.094308 C123.9312,179.398399 123.2072,177.751781 122.720533,176.479516 C122.256533,175.191264 122.1392,174.217415 122.469867,173.681865 C122.724533,173.267546 123.880533,173.388778 125.6592,174.403926 C126.3312,174.787603 127.605867,176.034556 128.461867,176.634053 C129.384533,177.19758 129.7632,177.193583 128.800533,175.055379 C128.2912,173.918999 127.516533,172.505519 126.5672,170.922848 C125.617867,169.340177 124.641867,167.497724 123.5072,165.632623 C121.3232,161.854462 119.020533,157.677969 117.1832,154.055677 C116.2232,152.27717 115.568533,151.611063 114.3272,149.071862 C114.5152,149.462201 114.540533,148.291184 114.1832,147.894184 C113.208533,146.876372 111.7952,143.563154 110.289867,139.788989 C109.625867,137.869268 108.924533,135.844301 108.260533,133.928577 C107.665867,131.990204 107.1312,130.151748 106.6432,128.658335 C106.5672,128.423865 106.3072,128.639684 106.0432,127.615211 C105.8952,127.059677 105.9752,125.971258 106.1032,126.418882 C105.237867,123.46403 104.340533,122.367617 103.780533,119.8071 C103.277867,117.443751 102.776533,113.471087 102.4752,110.590838 C102.3392,109.429147 102.153867,108.407338 102.037867,107.16305 C101.9192,105.890785 101.820533,104.642499 101.796533,103.483472 C101.700533,101.108134 101.7512,98.9166403 101.8392,96.7664456 C102.045867,92.4927007 102.5232,88.5147074 103.3912,84.6792611 C104.248533,80.9210832 105.177867,80.5440664 105.821867,73.8843248 C105.9632,72.3895799 105.7112,71.0307208 106.049867,69.5293148 C106.061867,69.4906805 106.6072,67.7721235 107.1672,66.0016101 C107.720533,64.2390899 108.301867,62.4192846 108.4352,62.1941403 C109.5112,60.4822443 110.880533,61.3694993 111.892533,61.354845 C112.889867,61.3415228 113.629867,60.3650094 113.076533,54.9002644 C112.932533,53.5480664 112.404533,52.9898685 112.192533,51.6123584 C112.0272,50.276147 112.0192,47.4931503 111.760533,46.2355396 C111.373867,44.5289725 110.677867,43.545798 110.548533,43.1527946 C109.9392,40.4177577 109.241867,36.9193617 108.113867,34.8837376 C107.913867,34.4987275 107.3952,34.6279523 107.236533,34.3441906 C106.8552,33.8046436 106.537867,33.0799188 106.104533,32.3072342 C105.6192,31.5638584 105.1232,30.7059121 104.328533,30.0318114 C104.124533,29.8413047 103.9192,29.6641201 103.709867,29.4922644 C103.484533,29.3350631 103.236533,29.2031738 102.997867,29.0592946 C102.504533,28.7861906 102.049867,28.4544691 101.457867,28.1986839 C101.096533,28.0401503 100.568533,27.5991872 100.072533,27.3460664 C99.5792,27.0916134 99.2098667,26.8664691 99.3192,26.9037711 C96.5018667,26.0871235 95.7898667,26.9943617 93.8965333,26.4015262 C93.8085333,26.3802107 93.6978667,26.3522342 93.5805333,26.3229255 C93.0125333,25.9738852 92.8018667,25.5262611 92.9205333,24.9241 C91.8565333,24.7189389 91.4432,24.7402544 91.3885333,24.7535765 C91.3325333,24.7735597 91.6218667,24.8241839 91.9205333,24.8894624 C92.5138667,25.0706436 93.1512,25.1878785 91.2232,25.0439993 C90.1805333,25.0306772 89.8165333,24.7295966 88.6378667,24.9480799 C87.8992,24.6563248 89.5578667,23.9182779 90.2885333,23.1655765 C90.7898667,22.6500094 90.5365333,21.804053 91.2258667,21.313798 C92.0645333,20.6889893 93.6458667,20.2933215 94.8845333,20.1867443 C95.9645333,20.1081436 96.7872,20.1294591 96.7085333,19.8723416 C96.5125333,19.3794221 95.9632,18.9158114 95.1312,18.6253886 C93.2138667,17.901996 89.8605333,18.4775128 87.1018667,19.8456973 C84.3018667,21.1699188 82.0965333,22.9910564 81.0778667,23.7357644 C76.0845333,27.5046 72.0378667,31.0722711 67.0672,36.0507577 C64.5938667,38.5473282 62.2952,41.4968517 58.8685333,45.0671872 C57.7005333,46.2808349 57.1632,46.7937376 56.5525333,47.4718349 C55.3352,48.8346906 50.6152,53.4294993 47.6032,56.0819389 C46.3205333,57.2289758 44.6045333,58.6411235 43.0752,59.7828315 C43.2498667,59.6496101 42.9298667,60.5381973 42.2512,60.7153819 C39.7952,61.3441872 40.2618667,62.0089624 38.0938667,63.5490027 C36.8578667,64.3803047 35.6858667,64.9105262 34.2085333,65.4287577 C32.6952,65.8990295 30.9392,66.5398248 27.6205333,66.6357443 C27.1085333,66.6117644 26.2458667,66.721006 25.3165333,66.646402 C24.4125333,66.6317477 23.4965333,66.4132644 23.1338667,66.3000262 C20.7058667,65.4500732 18.5378667,63.6102846 17.2138667,61.8451 C15.8352,60.1478584 14.8778667,58.1548651 14.1125333,56.0992577 C12.9112,52.6381638 12.7298667,48.781402 12.8898667,45.5387913 C13.1645333,40.7308282 13.9912,36.8234423 15.1792,32.8214691 C15.4672,31.8103181 15.8245333,30.8311403 16.1725333,29.8040027 C16.3925333,29.2311503 16.6165333,28.6503047 16.8445333,28.0614658 C17.0965333,27.4273315 17.3832,26.7998584 17.6672,26.1537342 C18.8045333,23.5758987 20.1845333,20.8635094 21.9312,18.0578651 C22.2005333,17.5769356 24.1618667,15.3428114 25.5338667,13.3698013 C27.4152,10.6547477 30.3325333,7.3481906 33.4445333,4.91689866 C34.9992,3.69126107 36.5658667,2.55221745 38.0618667,1.59035839 C38.8058667,1.11209329 39.5552,0.668465772 40.2445333,0.308767785 C40.9152,0.356727517 41.5298667,0.412680537 42.0698667,0.473962416 C42.8045333,0.960220805 43.2498667,1.27462349 43.6365333,1.55305638 C48.0898667,4.88226107 48.5565333,5.3631906 50.6392,7.54935503 C53.1138667,10.1311872 52.6338667,12.9608114 49.8818667,12.0229322 C49.6098667,11.9296772 48.9298667,11.5766403 48.2885333,11.2502477 C47.6285333,10.9478349 47.0045333,10.6773953 46.8565333,10.6840564 C46.1925333,10.725355 47.1338667,12.2201 46.7418667,12.4892074 C46.5298667,12.5971168 44.5525333,11.9190195 44.8872,12.4692242 C45.7618667,13.9653013 47.8232,15.5000128 50.0352,17.1812678 C51.1392,18.0085732 52.3045333,18.882506 53.4165333,19.7164725 C54.4832,20.5997309 55.5552,21.3990597 56.4112,22.1344423 C60.1325333,25.2491604 63.2378667,29.5708651 66.2818667,32.1740128 C66.6952,32.560355 68.1672,34.3974792 69.6538667,36.6595799 C71.1818667,38.8977007 72.7525333,41.5354859 73.8032,43.2353919 C74.5352,44.3611134 75.4472,45.6040698 76.3258667,46.9775832 C76.8258667,47.7862376 77.2085333,49.2490094 77.6978667,50.0336839 C77.8992,50.3627409 78.6098667,50.5572443 78.7352,50.8023718 C79.1298667,51.5510765 79.5472,52.6235094 79.9805333,53.743902 C80.4138667,54.8576336 80.8512,55.9407242 81.3138667,56.8519591 C82.2072,58.4466201 82.9938667,59.0967409 83.7632,60.3929859 C84.7578667,62.1248651 84.9005333,63.1506705 86.1032,65.1902913 C87.8112,68.085194 90.8058667,71.3797611 93.2565333,74.7595899 C95.5378667,77.9102779 97.7712,81.6511369 99.8965333,85.1362107 C100.8352,86.6576 101.853867,88.3281973 102.864533,90.0547477 C103.356533,90.9366738 103.873867,91.7733047 104.3512,92.7031906 C104.812533,93.6677141 105.272533,94.6242443 105.7232,95.5634557 C106.165867,96.5066638 106.436533,97.4845094 106.7712,98.4037376 C106.924533,98.8660161 107.073867,99.3216336 107.221867,99.7652611 C107.3232,100.216882 107.4232,100.657845 107.5192,101.085486 C107.704533,101.943432 107.8632,102.753419 107.985867,103.496795 C108.0592,104.244167 108.096533,104.924929 108.101867,105.525758 C108.112533,107.120419 107.316533,105.849486 107.033867,106.863301 C106.753867,107.914419 106.724533,110.717399 105.853867,110.388342 C105.3072,110.180516 103.969867,108.278113 103.388533,108.488603 C103.3032,108.519244 103.2352,109.868778 102.8712,109.622318 C102.725867,109.53306 102.244533,108.752382 101.657867,107.939731 C101.0512,107.132409 100.3992,106.279791 100.049867,105.90011 C99.4525333,105.23267 99.0632,105.03417 98.3752,104.28813 C97.1178667,102.921278 96.5645333,102.448342 96.1072,105.744241 C95.9672,106.568882 95.5005333,108.625821 95.4552,109.534392 C95.3885333,110.397667 95.5938667,111.840456 95.6552,113.574999 C95.7725333,115.22961 95.8098667,117.14267 95.7578667,118.4176 C95.6338667,120.870207 95.2645333,122.480855 95.2538667,123.899664 C95.2205333,126.693318 95.2525333,130.639338 95.6538667,134.966372 C95.7778667,136.068113 95.8645333,137.151204 96.0365333,138.276926 C96.2352,139.414637 96.4338667,140.548352 96.6285333,141.663415 C96.8432,142.781144 97.1792,143.921519 97.4525333,145.001946 C97.6018667,145.545489 97.7325333,146.078375 97.8952,146.603268 C98.0845333,147.130825 98.2712,147.649056 98.4512,148.153966 C99.0232,149.735305 99.6205333,151.128801 100.3872,152.395738 C101.129867,153.650684 101.729867,154.908295 102.477867,156.008704 C103.2632,157.242335 104.0392,158.575882 104.900533,159.74157 C105.781867,160.873952 106.672533,162.018325 107.569867,163.172023 C108.520533,164.207154 109.477867,165.250278 110.440533,166.301395 C111.409867,167.348516 112.440533,168.237103 113.4512,169.212285 C114.460533,170.198123 115.517867,171.053405 116.573867,171.930003 C117.629867,172.809264 118.689867,173.693855 119.784533,174.474533 L121.417867,175.680187 L122.236533,176.279684 L122.633867,176.568774 L122.8432,176.705993 L124.532533,177.794412 C128.7312,180.344271 133.320533,182.236016 138.9872,183.741419 C139.693867,183.94658 140.392533,184.105113 141.104533,184.270308 C143.053867,184.729922 144.0592,185.278795 147.285867,185.923587 C147.3352,185.936909 147.4112,185.94357 147.4352,185.960889 L147.3632,186.043486 L147.2232,186.207348 L146.953867,186.53907 L146.4512,187.209174 C146.125867,187.655466 145.773867,188.05513 145.428533,188.494761 C144.7152,189.331392 143.9032,190.173352 142.808533,190.919392 C141.065867,192.150358 138.580533,193.042942 136.813867,194.092728 C136.4192,194.321868 136.557867,194.59364 135.877867,194.829442 C135.625867,194.922697 134.500533,195.082563 134.7952,194.91204 C133.101867,195.86857 133.1032,196.470731 131.640533,197.136838 C129.761867,198.009439 126.033867,199.470879 122.6152,200.808422 C119.2792,202.113993 116.196533,203.39958 115.7432,203.468855 C115.844533,203.458197 115.068533,203.066526 115.085867,203.065194 C115.2112,203.081181 114.420533,202.769442 114.4432,202.998583 C114.433867,202.464365 116.1032,201.463872 115.8632,201.357295 C115.3032,201.076197 114.2952,201.21608 113.0552,201.64905 L112.817867,201.730315 L112.696533,201.774278 L112.636533,201.796926 L112.708533,201.794261 C112.896533,201.791597 113.0912,201.788932 113.2872,201.786268 C113.6792,201.784936 114.0832,201.796926 114.4952,201.816909 C115.320533,201.843553 116.177867,201.935476 117.060533,202.052711 C120.552533,202.491009 124.5752,203.626056 127.105867,204.65053 C129.053867,205.439201 132.036533,206.266506 135.108533,207.85717 C136.632533,208.656499 138.1752,209.682305 139.425867,211.06914 C140.6832,212.441321 141.564533,214.207838 141.909867,216.051623 C142.373867,218.566845 142.160533,221.225946 141.732533,223.6226 C141.317867,226.037905 140.5712,228.189432 139.7832,229.841379 L139.781867,229.841379 C138.652533,229.826724 137.557867,229.552288 136.532533,228.94613 C135.2192,228.189432 133.6232,226.372291 132.2592,224.596449 C130.869867,222.84059 129.7032,221.11404 128.960533,220.421288 C127.260533,218.807976 125.9192,217.951362 124.5112,217.021476 C123.116533,216.104912 121.648533,215.100422 120.0632,213.479117 C119.2952,212.698439 118.413867,211.154402 117.6872,210.268479 C116.896533,209.309285 115.476533,207.73061 113.985867,205.916134 C112.497867,204.110983 110.940533,202.074026 109.9392,200.466043 C109.025867,199.004603 108.2992,197.428593 107.653867,195.955164 C107.336533,195.246426 107.0192,194.533691 106.697867,193.812962 C106.189867,192.852436 105.717867,192.018469 104.9112,190.794164 C103.724533,188.987681 102.377867,187.029325 100.8232,184.905774 C99.1765333,182.68364 97.6818667,180.735942 96.0138667,178.560436 C92.7272,174.260046 89.1912,169.602623 85.7658667,164.963852 C79.1845333,156.050003 72.3832,146.629912 65.2832,138.287583 C63.5418667,136.281268 61.7832,134.389523 60.0005333,132.47513 C58.1538667,130.591379 56.2792,128.687644 54.3672,126.614717 C52.2058667,124.359278 50.0232,122.085187 47.8538667,119.823087 C45.5818667,117.6236 43.4378667,115.348177 41.1538667,113.259264 C36.6272,109.056127 32.0258667,105.234003 27.5472,102.361748 C25.6045333,101.18407 23.4005333,100.210221 21.2192,98.9073148 C19.1685333,97.7269725 17.3232,96.5013349 15.2832,95.155798 C13.1512,93.9394859 10.7738667,92.6645564 7.81786667,91.2390866 L1.07386667,108.54056 C1.92053333,108.874946 2.93386667,109.27461 4.0312,109.70758 C6.24453333,110.594835 8.65786667,111.684587 10.9978667,113.000815 C11.5632,113.341862 12.1645333,113.670919 12.7312,114.02662 C13.3005333,114.410298 13.8592,114.734026 14.2312,115.001801 C15.0698667,115.581315 15.9205333,116.204791 16.6992,116.934845 C18.2712,118.362979 19.7085333,120.149479 20.3938667,122.253046 C21.2018667,124.341959 20.8538667,126.62804 20.1885333,128.599717 C19.8858667,129.496298 19.5165333,130.238342 19.1458667,130.940419 C18.7405333,131.694452 18.4925333,132.135415 17.8445333,133.403684 C17.5792,133.927244 17.3152,134.446808 17.0538667,134.963707 C16.7778667,135.527234 16.5018667,136.088097 16.2272,136.646295 C15.6898667,137.768019 15.1912,138.883083 14.7218667,139.995483 C13.7938667,142.221613 13.0165333,144.431758 12.4005333,146.699187 C11.8432,148.736144 10.9378667,151.361939 11.0898667,153.675996 C11.1898667,156.365738 12.0192,158.928919 13.2965333,161.109754 C15.4725333,164.653446 18.6205333,167.140691 21.8512,169.314865 C23.6298667,170.457905 25.4432,171.596949 27.3618667,172.582788 C29.2418667,173.583281 31.2792,174.549137 33.0685333,175.281855 C40.3338667,178.216724 47.4538667,180.148436 52.9552,182.446506 C53.6512,182.736929 55.3232,183.3271 55.8845333,183.682801 C55.9765333,183.740087 56.6712,184.721929 56.5805333,184.685959 C57.3432,185.027006 59.5712,185.43866 61.4245333,186.324583 C63.4898667,187.277117 65.7898667,188.714577 67.3538667,190.199996 C68.5218667,191.380338 69.6672,192.536701 70.7005333,193.581157 C71.6992,194.66558 72.5898667,195.632768 73.2805333,196.384137 C74.1805333,197.36065 75.7272,199.009932 77.4152,200.883026 C79.0578667,202.796087 80.8432,204.934291 82.1298667,206.929949 C86.4525333,213.447144 88.5312,218.946526 86.0645333,219.351519 C86.2872,219.308889 84.6525333,218.97317 84.6992,219.010472 C84.2485333,218.681415 83.2552,216.978845 82.7832,216.636466 C81.4485333,215.663949 80.5912,215.80916 79.7472,215.052462 C79.2205333,214.592848 77.7525333,212.261472 76.5272,211.18904 C76.2098667,210.901281 75.6632,211.031838 75.4085333,210.781382 C75.0378667,210.425681 74.5552,209.494462 74.1898667,209.196046 C73.1578667,208.380731 72.5485333,208.54859 71.2885333,207.695972 C70.5152,207.144436 69.1005333,205.647026 68.2178667,205.106147 C66.5952,204.044372 64.4045333,202.752123 63.2272,202.336472 C62.0525333,201.915493 61.8605333,202.372442 64.1205333,204.854358 C64.7138667,205.480499 65.8312,206.162593 66.9418667,207.525449 C67.8512,208.617865 68.4538667,209.668983 69.0405333,210.594872 C69.6098667,211.531419 70.1712,212.345402 70.7752,213.148728 C71.9765333,214.711415 73.4312,215.73056 74.7392,217.390499 C76.7098667,219.743191 77.7432,221.852087 79.7352,224.361979 C80.6285333,225.551647 80.9765333,225.94465 81.3152,226.430909 C81.6565333,226.917167 82.0125333,227.494016 82.7672,229.076687 C84.0525333,231.597238 85.3072,233.046687 86.8072,236.181389 C87.1685333,237.044664 87.5338667,237.911936 87.9005333,238.784536 C88.2885333,239.662466 88.4738667,240.524409 88.7792,241.398342 C89.4312,243.156865 89.7085333,244.831459 90.2312,246.508717 C91.0085333,249.949828 91.6098667,253.152472 91.4605333,256.343127 L105.084533,243.19017 L105.009867,243.198164 C104.760533,243.224808 104.5072,243.270103 104.2472,243.336714 C103.9912,243.378013 103.7472,243.332717 103.4872,243.372684 C103.2272,243.440627 102.9632,243.31007 102.689867,243.32206 L102.637867,243.319395 C102.600533,243.307405 102.661867,243.344707 102.501867,243.276764 L101.8192,243.000996 C101.596533,242.907741 101.3512,242.819815 101.145867,242.721231 L100.661867,242.389509 L98.7232,241.057295 C98.0698667,240.593684 97.4392,240.217999 96.7712,239.681117 L94.6992,237.757399 L92.6338667,235.84567 C91.9285333,235.163577 91.1472,234.284315 90.4125333,233.519623 C88.8938667,231.906311 87.3845333,230.29966 85.8858667,228.704999 C84.3272,227.058382 82.7778667,225.311848 81.2778667,223.842415 C80.4058667,222.995127 79.5458667,222.190469 78.6925333,221.411123 L77.4178667,220.254761 C76.9912,219.867087 76.5605333,219.474083 76.1978667,219.238281 C75.4405333,218.680083 74.6725333,218.116556 73.8978667,217.546368 C73.5058667,217.24662 73.1138667,216.94554 72.7192,216.643127 C72.3272,216.342046 71.8898667,215.96503 71.5672,215.770526 C70.6045333,215.112412 69.6525333,214.423657 68.7018667,213.713587 L67.9898667,213.179368 L67.6338667,212.908929 L67.3378667,212.711761 L66.1565333,211.9111 C65.3765333,211.38754 64.5965333,210.863979 63.8018667,210.329761 C63.1432,209.927432 62.4832,209.542422 61.8272,209.194714 C60.9845333,208.736432 60.2872,208.430023 59.5218667,208.099634 C59.1498667,207.943764 58.7658667,207.782566 58.3725333,207.617372 C58.0432,207.492144 57.7058667,207.362919 57.3658667,207.233694 C56.6512,206.963254 56.1045333,206.779409 55.5698667,206.603556 C55.0032,206.414382 54.5845333,206.287821 54.1965333,206.17858 C53.1125333,205.864177 51.3192,204.798405 49.4178667,203.627389 C47.8298667,202.664197 45.6192,201.097513 42.8925333,199.621419 C40.2232,198.132003 36.7605333,196.774476 33.2418667,196.129684 C32.3552,195.948503 31.4925333,195.933848 30.7552,195.876563 C29.9445333,195.852583 29.1205333,195.845922 28.1778667,195.731352 C27.3925333,195.679395 26.5058667,195.588805 25.4885333,195.472902 C25.2965333,196.334845 25.2632,197.463231 25.1365333,198.487704 C25.0112,199.566798 24.9965333,200.540647 24.9712,201.530483 C24.8432,206.783405 25.7992,212.081623 26.2925333,215.324234 C26.7085333,218.279087 26.8205333,224.758979 30.0298667,230.833879 C30.8765333,232.492486 31.9058667,235.025026 33.3112,238.166389 C34.6658667,241.263788 36.4698667,245.081915 38.8325333,249.258409 C39.5018667,250.437419 40.0472,251.271385 40.5365333,252.004103 C41.0738667,252.780785 41.5432,253.444228 42.0312,254.260875 C42.4338667,254.933644 42.8152,255.627728 43.1845333,256.335134 C43.5925333,257.081174 44.0112,257.849862 44.4272,258.611889 C44.8498667,259.383241 45.2698667,260.147932 45.6698667,260.877986 C46.1418667,261.657332 46.6152,262.412697 47.0952,263.117439 C48.6138667,265.370214 50.3312,266.890271 51.7805333,268.985845 C53.7952,271.923379 55.2418667,274.682395 57.1032,277.458731 C58.6285333,279.64756 59.9992,281.79509 61.3752,283.893328 C62.0578667,284.941781 62.6125333,285.98757 63.2272,287.017372 L64.1232,288.553415 C64.3965333,289.047667 64.5778667,289.483301 64.8072,289.948244 C65.2285333,290.839496 65.6458667,291.724087 66.0592,292.600684 C66.2658667,293.149556 66.4712,293.694432 66.6725333,294.233979 C66.9112,294.782852 66.9992,295.287761 67.1485333,295.80466 C67.2778667,296.314899 67.4578667,296.839791 67.4885333,297.310063 C67.9352,299.949181 67.5125333,302.443087 66.4178667,304.99561 C66.3698667,305.118174 66.3458667,305.222087 66.2818667,305.367298 L66.0485333,305.84956 C65.8938667,306.171956 65.7378667,306.498348 65.5818667,306.827405 C65.2632,307.421573 64.9485333,308.053043 64.6485333,308.527311 C64.4965333,308.817734 64.3592,308.984261 64.2298667,309.185426 C64.0912,309.423892 63.9952,309.507821 63.9085333,309.630385 C63.8618667,309.704989 63.8245333,309.75961 63.8192,309.74762 L63.8045333,309.767603 L63.7992,309.782258 C63.7992,309.782258 63.7965333,309.782258 63.8005333,309.788919 L63.8792,309.880842 L64.0338667,310.071348 C64.2512,310.365768 64.3938667,310.480338 64.5578667,310.676174 C64.7165333,310.857355 64.8672,311.049194 65.0098667,311.249026 C65.1552,311.448858 65.2898667,311.658016 65.4178667,311.875167 C65.5512,312.114966 65.6258667,312.16559 65.7232,312.333449 C66.5205333,313.76558 66.4352,314.262496 66.4392,313.958751 C66.4418667,313.924113 66.4458667,313.894805 66.4512,313.870825 C66.4565333,313.776238 66.4672,313.659003 66.4845333,313.563083 C66.5192,313.32062 66.5672,313.291311 66.6552,312.88765 C66.7418667,312.56259 66.8592,312.274832 67.0018667,311.989738 C67.1618667,311.555436 67.3538667,311.14911 67.5712,310.772093 C67.7632,310.489664 68.0992,309.824889 68.3338667,309.465191 C68.3272,309.450536 68.3472,309.48917 68.3085333,309.445207 C68.2338667,309.355949 68.1872,309.351952 68.0565333,309.197415 C67.9458667,309.081513 67.8312,308.970939 67.6872,308.789758 C67.5578667,308.635221 67.4232,308.475355 67.2805333,308.270194 C65.9218667,306.528989 63.8992,301.683724 63.8152,300.679234 C63.6898667,299.385654 65.5512,299.220459 65.4085333,298.415801 C65.1818667,297.178174 64.0632,294.62565 62.7792,291.911929 C62.6218667,291.582872 62.4698667,291.267137 62.3232,290.960728 C62.3112,290.862144 62.2992,290.766224 62.2885333,290.672969 C62.2658667,290.495785 62.2445333,290.327926 62.2245333,290.161399 C62.1778667,289.842999 62.1205333,289.56057 62.0112,289.271479 C61.7938667,288.687969 61.4072,288.079147 60.5018667,287.065332 C60.4378667,286.989395 59.7858667,286.648348 59.5205333,286.316627 C59.3045333,286.039526 59.3085333,285.57858 59.3845333,285.654516 C58.9485333,285.250855 58.0405333,284.877835 57.6312,284.476838 C57.0592,283.90665 56.9058667,283.471016 56.3445333,282.958113 C55.8418667,282.502496 54.7472,281.799087 54.0378667,281.194261 C53.5298667,280.763956 53.5458667,280.522825 53.0712,280.108506 C52.4552,279.564962 51.1765333,278.659056 50.4472,278.03558 C50.0058667,277.657231 49.6458667,277.318848 49.3192,277.004446 C48.3138667,276.030597 47.7138667,275.327187 45.8618667,273.859087 C45.1872,273.367499 43.8992,272.428288 43.6005333,272.209805 C43.1725333,271.839449 42.9605333,271.583664 42.7712,271.343865 C42.6698667,271.140036 42.1072,270.747033 42.6338667,270.786999 C43.0458667,270.629798 42.6218667,269.958362 42.8392,269.69858 C42.9818667,269.549372 44.2112,269.99966 44.3018667,269.847788 C44.3352,269.779845 43.2125333,268.823315 43.2858667,268.804664 C44.0325333,268.587513 45.8685333,269.092422 46.7365333,269.124395 C47.8112,269.159033 48.7552,268.932556 50.1672,269.101748 C51.5498667,269.260281 53.3738667,269.797164 55.3952,271.01614 C57.4392,272.855929 53.7898667,270.632462 54.9032,271.778167 C56.3978667,272.66409 56.3738667,272.26709 57.7445333,273.103721 C59.1858667,273.964332 59.7725333,274.97415 60.7392,275.356496 C61.6578667,275.730848 62.6112,275.30454 63.5312,275.47906 C65.0672,275.765486 66.9178667,276.536838 68.7138667,276.93517 C69.3445333,277.075053 70.0005333,277.128342 70.7365333,277.222929 L71.2792,277.288207 L71.5552,277.325509 L72.0352,277.445409 C72.6832,277.610603 73.3365333,277.790452 73.9952,277.995613 C75.2112,278.365969 76.3912,278.822919 77.6925333,279.267879 C78.8738667,279.763462 80.2392,280.237731 81.3672,280.810583 C82.6112,281.348798 83.6445333,281.954956 84.6552,282.530472 C85.0858667,282.840879 85.4485333,283.076681 85.7952,283.301825 C86.0938667,283.597577 86.4152,283.864019 86.7378667,284.131795 C87.6098667,285.060348 88.2325333,286.030201 88.8885333,287.399717 C89.5325333,288.69463 89.9445333,290.313271 90.2765333,291.849315 C90.3885333,292.528744 90.3765333,292.989691 90.3565333,293.455966 C90.3125333,293.947553 90.2525333,294.452462 90.3032,295.195838 C90.4138667,297.59116 90.8232,300.17166 90.6018667,302.373811 C90.2152,305.860217 89.0778667,307.915825 88.4765333,311.03454 C87.3978667,316.651157 86.6032,324.684412 85.0818667,331.549315 C84.7112,333.253217 83.9392,335.198251 83.6205333,336.866184 C82.7925333,341.246506 82.3832,345.570875 81.6805333,350.59066 C81.2818667,353.518868 80.7525333,356.724177 80.4952,360.803419 C80.3938667,363.499821 80.4778667,365.380909 80.5605333,367.188724 C80.6525333,368.976556 80.7765333,370.615181 80.9192,372.183197 C81.1992,374.799667 81.4965333,377.566677 81.7832,380.249758 C82.0258667,382.718352 82.1032,384.900519 81.8912,386.226073 C81.8045333,386.724321 81.6378667,387.121321 81.4552,387.231895 C81.4352,387.251879 81.4098667,387.229231 81.3885333,387.229231 L81.3712,387.225234 L81.7165333,387.277191 L82.5672,387.417073 C83.7672,387.654207 84.6618667,387.75812 85.6685333,387.984597 C86.1592,388.091174 86.6592,388.216402 87.1392,388.342962 C87.5592,388.428224 87.9818667,388.52814 88.4005333,388.642711 C88.8218667,388.757281 89.2392,388.887838 89.6578667,389.034382 C90.0618667,389.170268 90.3712,389.242207 90.7298667,389.375429 C91.0778667,389.497993 91.4232,389.637875 91.7645333,389.793744 C92.0952,389.94162 92.3325333,390.01356 92.6152,390.154774 C92.8872,390.282667 93.1592,390.435872 93.4165333,390.595738 C93.6192,390.691657 93.8205333,390.806228 94.0138667,390.938117 C94.1125333,391.004728 94.2072,391.075335 94.3018667,391.149939 L94.3725333,391.207224 L94.4058667,391.236533 L91.1805333,388.803909 L91.1045333,388.749288 C91.0032,388.677348 90.9072,388.601412 90.8178667,388.524144 L90.2325333,387.973939 C89.4512,387.155959 88.2872,385.711838 87.3058667,383.861392 C86.7272,382.784962 86.0712,381.423439 85.4725333,379.856754 C85.4045333,379.680902 85.3352,379.502385 85.2658667,379.321204 C85.2752,379.31854 85.2485333,379.314543 85.2192,379.313211 C85.1632,379.310546 85.1365333,379.326533 85.0205333,379.331862 C84.6645333,379.383818 83.9258667,379.498389 82.9912,379.538355 C82.0552,379.579654 80.9272,379.530362 79.8738667,379.394476 C78.8125333,379.267915 77.8565333,378.993479 77.3192,378.788318 C77.3352,378.800308 77.1378667,379.109382 76.9898667,379.004137 C76.9192,378.936194 76.8485333,378.877577 76.8712,378.853597 C76.9085333,378.784321 76.7992,379.004137 76.7245333,379.149348 L76.4778667,379.608962 L75.9592,380.522862 C75.6458667,381.115697 75.2898667,381.704536 74.8912,382.285382 C73.4485333,384.560805 71.7472,386.472533 70.3805333,387.487681 C70.1645333,387.632892 70.0392,387.73414 69.9085333,387.83006 C69.7698667,387.927311 69.6192,388.019234 69.4578667,388.104496 L69.3965333,388.136469 L69.3658667,388.151123 L69.3498667,388.159117 L69.3418667,388.163113 C90.7992,376.311731 75.2898667,384.87654 80.0792,382.232093 L80.0778667,382.220103 L80.0738667,382.198788 L80.0565333,382.160154 C80.3885333,381.944335 79.1632,382.591791 78.3938667,382.912855 C77.9698667,383.095368 77.5378667,383.265892 77.0965333,383.425758 C76.6938667,383.585623 76.3578667,383.734832 75.9725333,383.87205 C72.8978667,384.987113 70.5338667,385.277536 69.3552,385.2016 C68.9712,385.164298 68.8992,385.173623 68.6818667,385.128328 L68.5418667,385.100352 L68.4578667,385.076372 L68.5432,385.108345 L68.5698667,385.122999 L68.6978667,385.178952 C68.7792,385.218919 68.8525333,385.260217 68.9165333,385.302848 C69.0045333,385.353472 69.1685333,385.444063 69.2752,385.519999 C70.2485333,386.151469 71.8618667,387.704832 73.5538667,390.174758 C74.0272,390.822214 74.4405333,391.477664 74.8205333,392.154429 C75.0578667,392.526117 75.2805333,392.899137 75.4925333,393.276154 L75.8005333,393.839681 L75.9472,394.123442 C75.9672,394.163409 75.9485333,394.1341 75.9512,394.142093 C75.9845333,394.126107 76.0298667,394.078147 76.1778667,394.012868 C76.4498667,393.882311 76.8712,393.699798 77.4005333,393.545261 C78.3872,393.25617 78.6632,393.565244 79.9538667,393.253506 C81.7498667,392.840519 83.7872,392.556758 86.4445333,392.402221 C88.1538667,392.307634 89.6005333,391.854681 90.9938667,391.834697 C95.3285333,391.802724 98.4445333,391.887986 103.5632,392.045187 C105.317867,392.110466 106.437867,392.583402 108.4392,392.733942 C109.340533,392.789895 113.9352,392.987063 117.0112,393.457335 C116.7912,393.42403 117.528533,393.012375 117.945867,393.288144 C118.437867,393.631855 119.128533,393.811704 119.812533,393.898298 C120.153867,393.939597 120.516533,393.95958 120.801867,393.951587 C120.969867,393.950254 121.080533,393.938264 121.192533,393.918281 C121.260533,393.91162 121.3072,393.898298 121.320533,393.878315 L121.360533,393.85167 L121.381867,393.835684 C121.3952,393.807707 121.3472,393.978231 121.536533,393.386728 L110.872533,371.718254 C111.433867,371.814174 112.0312,371.987362 112.633867,372.25114 C112.9952,372.368375 113.2912,372.489607 113.6432,372.702761 C113.713867,372.729405 113.817867,372.786691 113.909867,372.859962 C113.772533,372.766707 113.6832,372.682778 113.629867,372.617499 C113.461867,372.472288 113.272533,372.285778 113.133867,372.120583 C113.061867,372.035321 112.996533,371.951392 112.9352,371.86613 L112.581867,371.446483 C112.344533,371.148066 112.136533,370.842989 111.957867,370.532583 C111.724533,370.17555 111.3752,369.667976 111.140533,369.221684 L110.972533,368.899288 L110.968533,368.867315 C110.984533,368.849996 110.912533,368.822019 110.8912,368.802036 C110.8272,368.760738 110.769867,368.7261 110.7192,368.706117 C110.636533,368.679472 110.4952,368.648832 110.3912,368.639506 C110.2552,368.634177 110.112533,368.628848 109.964533,368.623519 C108.4032,368.699456 104.189867,368.91261 98.8178667,368.250499 C93.4552,367.64967 87.0298667,366.3441 80.8232,364.612221 C78.7498667,364.058019 73.8232,363.202738 73.4898667,361.81457 C82.1792,364.889321 92.0832,366.60255 100.1232,367.16208 C101.288533,367.231355 102.960533,367.686972 104.040533,367.632352 C105.668533,367.592385 106.8032,367.010207 107.812533,366.766412 C108.001867,366.71712 108.213867,366.713123 108.3832,366.711791 C108.536533,366.702466 108.693867,366.715788 108.861867,366.733107 C108.945867,366.742432 109.032533,366.750426 109.121867,366.761083 L109.312533,366.761083 C109.421867,366.75309 109.6352,366.758419 109.688533,366.710459 C109.729867,366.667828 109.844533,366.575905 109.816533,366.490644 C109.665867,366.168248 110.056533,367.11412 110.3592,367.690969 C110.757867,368.405036 110.920533,368.856657 111.2752,369.458818 C112.792533,372.119251 113.973867,372.90659 113.828533,372.801345 C113.757867,372.754717 113.697867,372.724077 113.6552,372.70809 C113.457867,372.589523 113.208533,372.460298 112.997867,372.380365 L112.668533,372.267127 C112.4672,372.176536 112.264533,372.097936 112.061867,372.027328 C111.660533,371.886113 111.260533,371.784865 110.872533,371.718254 L121.536533,393.386728 L120.957867,395.218523 L120.8272,395.65016 L120.824533,395.651493 L120.8192,395.652825 L120.7992,395.658154 L120.5952,395.631509 L119.937867,395.53559 L118.161867,395.309113 C116.8512,395.161238 115.412533,395.033345 113.965867,394.926768 C111.057867,394.712281 108.108533,394.573731 105.368533,394.405872 C104.3832,394.345922 102.3912,394.3326 101.497867,394.174066 C100.6752,394.031519 100.952533,393.546593 99.5872,393.457335 C98.4245333,393.390724 98.2218667,394.002211 97.6485333,394.043509 C96.3898667,394.131436 95.9845333,393.690472 95.7418667,393.697134 C91.3418667,393.870321 86.4565333,394.030187 82.1898667,394.652332 C80.1218667,394.949415 78.1405333,395.417023 77.2512,395.778053 C77.0485333,395.86065 76.8978667,395.928593 76.8925333,395.94458 C77.0152,396.187043 76.6032,395.34908 76.3432,394.878808 L75.5658667,393.406711 C75.3098667,392.936439 75.0018667,392.448848 74.7365333,392.009217 C74.5005333,391.58957 74.2432,391.176583 73.9698667,390.770258 L73.5458667,390.165432 L73.1858667,389.631214 C72.9432,389.283506 72.6805333,388.941127 72.3992,388.606741 C72.1498667,388.292338 71.9512,388.025895 71.6965333,387.744798 L70.9978667,386.993429 C70.7912,386.776278 70.5672,386.564456 70.3272,386.364623 C70.1485333,386.1941 69.9845333,386.044892 69.7858667,385.895684 L69.3018667,385.53865 C69.1858667,385.450724 68.9578667,385.330825 68.8925333,385.286862 C68.3458667,384.985781 68.3698667,385.089694 68.7858667,385.148311 C68.9392,385.174956 68.9485333,385.157637 69.1925333,385.188278 C69.3992,385.209593 69.5965333,385.212258 69.7832,385.200268 C70.0152,385.198936 70.3418667,385.198936 70.6018667,385.168295 L71.0045333,385.112342 L71.5472,385.052392 C71.9058667,385.0031 72.2352,384.929828 72.5898667,384.841902 C73.0272,384.763301 73.4525333,384.663385 73.8658667,384.542154 L74.4752,384.346318 L75.2112,384.130499 C75.7032,383.977295 76.1818667,383.802774 76.6485333,383.609603 C77.6378667,383.224593 78.8352,382.766311 79.8312,382.234758 C80.4098667,381.968315 81.0445333,381.680556 81.6258667,381.379476 L82.3978667,380.969154 L82.3885333,380.958496 L82.3885333,380.957164 C56.3192,395.357073 75.1658667,384.947147 69.3485333,388.160449 L69.3792,388.145795 L69.4378667,388.115154 L69.5525333,388.053872 L69.7698667,387.923315 C69.9138667,387.832724 70.0285333,387.740801 70.1685333,387.634224 C70.5538667,387.383768 70.8645333,387.11466 71.1818667,386.806919 C71.5978667,386.460543 71.9578667,386.091519 72.2872,385.698516 C72.7192,385.26155 73.1045333,384.8046 73.4432,384.330332 C75.0018667,382.347996 76.4872,379.803466 77.6698667,377.208311 L77.8952,376.719389 L78.0032,376.474261 C78.0245333,376.424969 78.0072,376.462271 78.0098667,376.452946 C78.0098667,376.452946 77.9872,376.464936 78.0085333,376.472929 C78.0365333,376.488915 78.0592,376.510231 78.0832,376.535543 C78.1685333,376.58217 78.2525333,376.652778 78.4045333,376.71406 C78.6618667,376.856607 79.0805333,376.983167 79.4832,377.124382 C81.2112,377.647942 83.4058667,377.758516 84.1978667,377.426795 C84.2672,377.386828 84.4192,377.322882 84.4565333,377.226962 C84.4872,377.182999 84.5338667,377.144365 84.5072,377.097738 L84.5018667,377.067097 L84.6685333,377.578667 C84.8125333,377.970338 84.9352,378.354016 85.0578667,378.73503 C86.1125333,381.841754 87.6298667,384.494194 88.3125333,385.545311 C88.8738667,386.317996 88.9312,386.47653 89.3205333,386.941472 C89.6765333,387.341137 89.8538667,387.591593 90.1152,387.856704 C90.3432,388.075187 90.5605333,388.283013 90.7725333,388.484177 C90.8658667,388.568107 90.9645333,388.646707 91.0672,388.723976 C92.1712,389.553946 93.2698667,390.378587 94.3605333,391.199231 C94.2645333,391.119298 94.1672,391.044694 94.0685333,390.975419 C93.8712,390.836868 93.6685333,390.718301 93.4632,390.618385 C93.2298667,390.485164 92.9365333,390.305315 92.6685333,390.180087 C90.4098667,389.107654 87.0565333,388.053872 81.1365333,387.191929 L79.6552,387.01208 C79.4245333,386.993429 79.1192,386.941472 78.8458667,386.906835 L78.4898667,386.858875 L78.5112,386.856211 L78.7098667,386.830899 C78.8392,386.725654 78.9978667,386.669701 79.1232,386.443224 C79.3938667,386.071536 79.6138667,385.378785 79.6112,384.186452 C79.6018667,382.021603 79.0992,379.145352 78.7858667,375.764191 C78.5552,373.214332 78.6525333,370.679127 78.4578667,367.612368 C78.3912,366.473325 78.3258667,365.336946 78.2592,364.204563 L78.1885333,362.170271 L78.1832,360.959288 C78.1805333,360.494345 78.1978667,360.318493 78.2045333,359.988103 C78.2378667,358.805097 78.2725333,357.618093 78.3418667,356.55765 C78.3965333,355.441254 78.4738667,354.402127 78.5565333,353.380318 C78.8818667,349.28509 79.3218667,345.582865 79.9298667,342.005868 C80.3418667,339.571912 81.2138667,337.052694 81.7418667,334.344301 C82.5058667,330.430254 82.8752,326.095228 83.5618667,321.713573 C83.8352,320.008338 84.6218667,317.470469 84.8872,315.730597 C85.6792,310.311147 85.0058667,309.288006 86.1058667,307.055214 C86.1658667,306.93265 86.7418667,306.269207 86.7645333,306.13865 C86.8685333,305.517838 86.8232,304.631915 86.7525333,303.793952 C86.7018667,302.937338 86.6392,302.120691 86.7245333,301.598462 C86.8005333,301.181479 87.5312,301.130855 87.6458667,300.669909 C87.6925333,300.535355 87.8152,299.482905 87.9405333,298.327875 C88.0352,297.202154 88.1178667,295.983177 88.0898667,295.544879 C88.0498667,294.236644 87.3938667,292.324915 86.9005333,290.617016 C86.5445333,289.468647 86.3658667,288.663989 86.0978667,287.940597 C86.0365333,287.76208 85.9752,287.580899 85.9098667,287.393056 C85.8445333,287.21454 85.7512,287.091976 85.6712,286.921452 C85.5405333,286.565751 85.2472,286.280657 84.9645333,285.886321 C84.8378667,285.783741 84.6498667,285.631868 84.4458667,285.466674 C84.2352,285.248191 83.8658667,285.487989 83.6018667,285.221546 C83.5445333,285.16959 83.4565333,285.088325 83.3445333,284.98308 C83.2245333,284.87517 83.1125333,284.744613 82.8432,284.58608 C82.3285333,284.275674 81.8445333,283.868016 81.0498667,283.447036 C79.5485333,282.595751 77.5392,281.657872 75.9458667,281.107667 C75.0525333,280.809251 74.1538667,280.572117 73.1392,280.388271 C72.6458667,280.289687 72.1525333,280.191103 71.6658667,280.093852 C71.2045333,279.997932 70.5978667,279.836734 70.5058667,279.839399 C69.3445333,279.598268 68.0658667,278.970795 66.7432,278.709681 C64.8658667,278.343321 63.6965333,278.593778 62.8072,278.644402 C61.8752,278.684368 61.1952,278.499191 59.2165333,277.072389 C58.5018667,276.563483 58.8992,277.020432 58.1272,276.371644 C57.3552,275.732181 57.6285333,275.833429 56.8938667,275.307204 C55.3152,274.190808 54.4845333,273.895056 53.7218667,273.924365 C53.5685333,273.928362 53.9352,274.40263 53.5165333,274.20413 C53.3792,274.141516 52.7618667,273.527365 52.5418667,273.571328 C52.1072,273.665915 52.6445333,274.515868 52.2152,274.607791 C51.3832,274.768989 49.0578667,274.082899 48.7685333,274.727691 C48.7525333,274.767657 48.7592,274.819613 48.7818667,274.882228 C48.7885333,274.938181 49.0552,275.107372 49.1952,275.225939 C49.5605333,275.497711 49.9285333,275.772147 50.2885333,276.041254 C51.0272,276.587462 51.7205333,277.09104 52.0272,277.348157 C53.1912,278.318009 53.5405333,278.842902 54.6045333,279.736818 L55.0418667,280.093852 C56.0965333,280.942472 57.3592,281.85504 58.2792,282.543795 C58.7925333,282.928805 59.0378667,283.207238 59.6645333,283.676177 C60.0992,284.007899 61.1512,284.567429 61.3578667,284.739285 C62.1152,285.364093 62.0672,285.774415 62.6938667,286.340607 C61.4312,286.273996 61.4512,285.743774 60.1258667,285.601228 C60.6272,286.094147 61.2872,286.236694 61.9485333,286.320623 C62.6098667,286.400556 63.2925333,286.455177 63.6818667,286.592395 C64.1312,287.367744 64.8805333,288.177731 65.1085333,289.05566 L65.1098667,289.062321 C65.1152,289.074311 65.1138667,289.071647 65.0525333,288.978392 C65.0272,288.942422 65.0512,288.979724 65.0512,288.979724 L65.1045333,289.06765 L65.2085333,289.243503 C65.2778667,289.359405 65.3432,289.473976 65.4098667,289.58455 C65.5392,289.808362 65.6618667,290.021516 65.7792,290.228009 C66.0072,290.634335 66.1938667,290.996697 66.3725333,291.351066 C66.7272,292.05714 66.9778667,292.65264 67.2258667,293.280113 C67.6938667,294.49909 68.0765333,295.772687 68.6698667,297.583167 C69.7485333,300.880399 69.7672,301.104211 69.6165333,303.54616 C69.5685333,304.138996 69.1685333,305.445899 69.2538667,305.667046 C69.4138667,306.143979 70.0498667,306.859379 70.1578667,306.915332 L70.1565333,306.911335 L70.1565333,306.910003 C70.1472,306.92066 70.1818667,306.874033 70.1032,306.975281 C69.8872,307.253714 69.6738667,307.542805 69.4658667,307.839889 L69.1592,308.295506 L68.8912,308.647211 C68.7178667,308.881681 68.5485333,309.126808 68.3872,309.381261 C68.0632,309.884838 67.7565333,310.496325 67.5352,310.83604 C67.3045333,311.219717 67.0912,311.765926 66.9405333,312.120295 C66.2858667,313.698969 66.4898667,314.398382 66.4125333,313.92811 C66.3512,313.463167 65.7178667,311.996399 64.3445333,310.440372 C64.0125333,310.058026 63.5805333,309.497164 63.1805333,309.101496 C62.9752,308.888342 62.7685333,308.687177 62.5578667,308.495338 L62.2432,308.216905 L62.0832,308.081019 L62.0938667,308.074358 C62.1578667,308.055707 62.2245333,308.038389 62.2765333,308.013077 C62.6418667,307.66004 63.3432,306.495684 63.9578667,305.092862 C64.3658667,304.281543 64.3578667,303.927174 64.5538667,303.420932 C64.5912,303.301033 64.6445333,303.18513 64.6765333,303.062566 L64.7165333,302.684217 C64.7458667,302.432429 64.7858667,302.184637 64.8378667,301.936845 C65.0605333,299.97316 64.5538667,297.449946 63.4765333,294.412496 L63.2765333,293.824989 L63.1818667,293.531902 L62.9298667,292.972372 C62.5978667,292.223667 62.2685333,291.481623 61.9418667,290.746241 L61.4592,289.645832 C61.2978667,289.279472 61.0245333,288.838509 60.8165333,288.441509 C60.3698667,287.628858 59.9272,286.825533 59.4925333,286.032865 C58.6805333,284.44753 57.6085333,282.916815 56.7058667,281.442053 C55.7952,279.971288 54.8058667,278.551147 53.8632,277.202946 C51.2658667,273.463419 47.4298667,268.988509 45.4778667,266.056305 C44.1978667,264.20053 43.3618667,262.593879 42.4952,260.967244 C41.5725333,259.296647 40.9165333,257.819221 39.9325333,256.119315 C39.6365333,255.610409 39.3285333,255.078855 39.0098667,254.531315 C38.7258667,254.014415 38.4352,253.484194 38.1378667,252.943315 C37.5245333,251.856228 36.8885333,250.727842 36.2485333,249.594127 C35.1085333,247.469244 33.7805333,245.200483 32.7005333,243.356697 C31.8618667,241.952543 30.7258667,240.785523 30.1272,239.401352 C29.6792,238.380875 29.4285333,237.336419 29.3125333,236.47714 C29.1872,235.607204 29.0645333,234.789224 28.7178667,234.003217 C27.1032,230.278345 24.6458667,225.862053 23.7098667,222.426271 C23.4565333,221.452422 23.2178667,220.454593 23.0152,219.440778 C22.8672,218.429627 22.7245333,217.413147 22.6138667,216.358033 C22.4245333,214.223825 22.2872,211.985704 22.2538667,209.485137 C22.1712,204.558607 22.3978667,198.62359 22.8912,192.338201 C23.8365333,192.400815 24.7418667,192.448774 25.6018667,192.476751 C26.3792,192.53004 27.1138667,192.562013 27.8072,192.57267 C28.1632,192.57267 28.6152,192.651271 29.2738667,192.755184 C29.9312,192.859097 30.7178667,193.00564 31.4898667,193.20414 C31.8912,193.302724 32.3165333,193.405305 32.7565333,193.511882 C33.1538667,193.629117 33.5645333,193.751681 33.9885333,193.875577 C34.8738667,194.119372 35.6218667,194.409795 36.4352,194.685563 C39.5552,195.807288 41.8285333,197.032926 42.2565333,196.729181 C42.7525333,196.364154 42.0205333,196.121691 44.5365333,197.661731 C46.9832,199.213761 47.9778667,199.340321 49.4472,199.164469 C50.0485333,199.095194 50.4898667,199.398939 50.9018667,199.822583 C51.3432,200.255553 51.8058667,200.83107 52.9245333,201.494513 C53.0245333,201.55313 53.2898667,201.654379 53.6525333,201.772946 C54.0672,201.906167 54.6032,202.078023 55.1738667,202.261868 C55.6992,202.40708 56.4818667,202.680184 57.1765333,202.90666 C57.5218667,203.01457 57.8525333,203.119815 58.1565333,203.215734 C58.5272,203.355617 58.8645333,203.482177 59.1525333,203.591419 C59.9552,203.901825 60.5018667,203.91115 61.2112,204.080342 C62.0005333,204.326801 62.7872,204.585251 63.7392,205.103483 C63.9805333,205.238036 64.2245333,205.375254 64.4752,205.515137 C64.7458667,205.682996 65.0952,205.945442 65.4098667,206.16659 C66.0645333,206.644855 66.7392,207.136442 67.4272,207.637355 C68.1338667,208.176902 68.7858667,208.616533 69.5752,209.275979 C70.4218667,210.032677 71.2752,210.794704 72.1272,211.558063 C72.9792,212.317426 73.8298667,213.076788 74.6712,213.828157 C75.5538667,214.67811 76.5138667,215.733224 77.4045333,216.63913 C79.2112,218.529543 80.9285333,220.192147 82.5192,222.007956 C83.3618667,222.923187 84.1938667,223.825097 85.0152,224.716348 C85.8205333,225.57163 86.6152,226.417587 87.4032,227.25555 C88.9098667,228.822234 90.3898667,230.360942 91.8525333,231.883664 C93.2392,233.203889 94.5405333,234.324281 95.8992,235.596546 L96.9125333,236.53709 C97.2418667,236.812858 97.5458667,236.98205 97.8645333,237.212523 C98.4978667,237.65615 99.1312,238.10111 99.7685333,238.548734 C100.181867,238.855144 100.5832,239.150895 100.980533,239.443983 L101.5712,239.896936 L102.4272,240.288607 L103.149867,240.624325 L103.224533,240.662959 L103.376533,240.764207 C103.481867,240.853466 103.601867,240.933399 103.737867,240.938728 C103.877867,240.953382 104.024533,241.038644 104.2232,241.004006 C104.4872,240.936063 104.592533,240.760211 104.772533,240.60967 L88.8912,255.943462 C88.7992,255.679684 88.7152,255.333308 88.6925333,254.825734 C88.6512,254.382107 88.8232,253.741311 88.8592,253.013922 C88.8485333,252.265217 88.8618667,251.515181 88.8005333,251.05157 C88.7578667,250.787791 88.7418667,250.529342 88.6645333,250.244248 C88.5698667,249.953825 88.4738667,249.658073 88.3792,249.363654 C88.1872,248.78414 87.9965333,248.207291 87.8178667,247.669077 C87.5432,246.809798 87.0525333,245.713385 86.7218667,244.535707 C86.5765333,243.950865 86.2792,243.291419 86.0272,242.613321 C85.7805333,241.93256 85.5232,241.222489 85.2578667,240.488439 C83.9645333,237.502946 82.4978667,234.020536 80.2205333,230.41956 C79.3578667,228.919486 78.6338667,228.507832 77.4552,226.801264 C76.5512,225.450399 75.2605333,223.522684 73.8178667,221.368493 C73.0445333,220.298724 72.2298667,219.174335 71.4072,218.036623 C70.5565333,216.912234 69.6378667,215.805164 68.7605333,214.727402 C66.9338667,212.575875 64.5845333,210.255157 61.7752,207.024536 C60.8925333,206.057348 59.2458667,204.364103 59.1898667,204.305486 C58.4978667,203.508821 58.7152,203.073187 58.3192,202.55762 C57.7485333,201.842221 57.3765333,201.374613 57.1018667,201.02957 C57.0965333,200.980278 57.1072,200.925657 57.1538667,200.815083 C57.1765333,200.699181 57.1698667,200.520664 57.1978667,200.182281 C57.1685333,200.057053 56.8445333,199.215093 56.7698667,199.137825 C56.7272,198.42509 57.1472,197.697701 57.7072,197.160818 C58.2578667,196.619939 58.9965333,196.273563 59.3392,196.230932 C59.4618667,196.213613 59.8885333,196.509365 60.1125333,196.754493 C60.4125333,197.002285 60.5045333,197.220768 60.6685333,197.262066 C60.7085333,197.296704 60.7338667,197.314023 60.7565333,197.327345 C61.5925333,197.833587 62.6685333,197.564479 63.9605333,198.235915 C64.5912,198.543657 65.6525333,199.745315 66.2712,200.147644 C66.8925333,200.549972 67.3938667,200.692519 68.1138667,201.162791 C70.7592,202.945295 73.2925333,205.128795 75.5392,206.812714 C76.7432,207.667996 77.7858667,208.465993 78.8218667,209.162741 C79.8392,209.872811 80.8378667,210.493623 81.7005333,211.162395 C80.9312,209.447835 79.6672,207.837187 78.3712,206.169254 C76.9805333,204.569264 75.5605333,202.893338 74.1778667,201.220077 C73.0018667,199.745315 71.7792,197.567144 70.4365333,196.176311 C68.8778667,194.453758 67.2285333,193.527868 65.5565333,192.098402 C65.4005333,191.995821 65.2325333,191.879919 65.0672,191.749362 C62.9138667,190.057449 59.0618667,187.467623 54.9898667,185.735744 C51.5472,184.230342 46.1658667,182.353251 41.8712,180.877157 C39.2712,179.983241 36.5725333,179.470338 34.2178667,178.543117 C33.6178667,178.313976 33.0552,178.043536 32.5258667,177.78109 C31.9178667,177.465355 31.3312,177.160278 30.7485333,176.857865 C29.4592,176.179768 28.1965333,175.451046 26.7232,174.783607 C24.6645333,173.804429 22.1365333,172.430915 19.9405333,171.096036 C18.3805333,170.100872 16.3965333,169.152335 14.8312,167.553677 C13.2472,165.98566 12.0218667,164.08459 11.0432,162.031647 C10.6885333,161.222993 10.4152,160.377036 10.1232,159.539073 C9.88586667,158.683791 9.6632,157.825845 9.50186667,156.961238 C9.20453333,155.342597 8.99253333,154.059674 8.90186667,152.706144 C8.79253333,151.353946 8.7792,149.923147 9.10853333,148.027405 C9.81386667,143.680389 12.0205333,139.181499 14.3472,135.064956 C14.8805333,134.112422 15.4072,133.170546 15.9245333,132.247321 C16.0992,131.923593 16.2712,131.605194 16.4418667,131.288127 C16.5325333,131.102949 16.6232,130.917771 16.7138667,130.73659 C17.0592,130.001207 17.3098667,129.273818 17.4005333,128.597053 C17.4938667,127.918956 17.2072,127.593895 17.3258667,126.873167 C17.4445333,126.03254 17.6072,125.151946 17.5832,124.226056 C17.5658667,123.301499 17.2872,122.371613 16.8538667,121.50967 C16.1712,120.338654 15.3312,120.008264 14.4285333,119.191617 C13.7672,118.653402 14.0578667,118.338999 13.5365333,117.880717 C13.3418667,117.691543 12.7885333,117.454409 12.2232,117.207949 L11.7285333,117.001456 C11.5165333,116.893546 11.3045333,116.784305 11.0978667,116.680392 C10.7005333,116.453915 10.2632,116.260744 9.9472,116.055583 C8.86453333,115.365496 8.76853333,114.912543 7.88853333,114.443603 C6.2992,113.709553 4.96053333,113.572335 3.58853333,113.012805 C2.2632,112.453274 1.48586667,111.851113 0.0818666667,111.242291 L8.91653333,88.5786537 C9.12586667,88.679902 9.38986667,88.8064624 9.66853333,88.9410161 C11.2672,89.6777309 13.9232,90.5703148 15.5712,91.3456638 C16.5645333,91.7786336 17.4605333,92.320845 18.3458667,92.8710497 L20.9952,94.5243282 L23.6285333,96.1829356 C24.4992,96.7424658 25.3072,97.3632779 26.1685333,97.934798 C27.2352,98.6595228 28.2792,99.2643483 29.3192,99.8758349 C30.3658667,100.481993 31.4058667,101.096144 32.3698667,101.908795 C34.1925333,103.384889 36.0472,105.192704 37.8752,106.651479 C44.2352,111.960355 51.2792,117.902033 55.9392,123.603912 C56.6125333,124.380593 59.0858667,127.605885 58.7938667,127.264838 C60.2365333,128.886144 61.5858667,129.600211 63.0858667,131.182882 C65.1685333,133.402352 67.0232,135.531231 68.7392,137.713399 C70.4232,139.911553 72.0992,142.101714 73.9045333,144.459734 C77.2498667,148.873362 81.1445333,153.400228 84.3672,157.701949 C90.2632,165.555355 95.8018667,173.803097 101.8192,181.696469 C104.325867,184.996365 106.4872,187.840644 108.557867,190.565023 C108.892533,191.012647 109.224533,191.45361 109.556533,191.894573 C109.7632,192.171674 109.961867,192.450107 110.156533,192.74053 C110.541867,193.322707 110.904533,193.943519 111.260533,194.678902 C111.924533,196.061741 112.044533,198.138664 113.3272,200.128993 C113.697867,200.708506 114.940533,202.078023 116.224533,203.360946 C117.5112,204.657191 118.844533,205.836201 119.5272,206.502308 C120.4832,207.433526 121.7912,208.953583 123.2472,210.145915 C124.413867,211.101113 125.676533,211.719261 126.829867,212.146902 C127.9832,212.598523 129.056533,212.832993 129.8912,213.596352 C131.1712,214.767368 134.264533,220.902217 135.488533,221.770821 C135.505867,221.784144 135.525867,221.797466 135.576533,221.814785 C136.1032,221.733519 137.641867,219.459429 138.2912,216.736382 C138.657867,215.394842 138.733867,213.950721 138.584533,212.778372 C138.540533,212.48262 138.4992,212.205519 138.460533,211.951066 C138.3872,211.693949 138.3192,211.460811 138.2592,211.254318 C138.1472,210.832006 138.001867,210.518936 137.892533,210.329761 C137.029867,208.689805 136.7432,207.675989 134.465867,205.850855 C133.653867,205.183415 132.2552,204.032382 131.557867,203.626056 C128.948533,202.131311 126.228533,201.730315 123.5472,200.920328 C121.796533,200.390107 120.236533,199.500187 118.848533,199.117842 C118.0192,198.888701 117.092533,199.040573 116.253867,198.886036 C115.5712,198.744821 114.996533,198.547654 114.529867,198.325174 C114.2992,198.222593 114.0872,198.129338 113.892533,198.042744 C113.8072,198.001446 113.677867,197.974801 113.6392,197.940164 C113.729867,197.881546 113.8152,197.832254 113.892533,197.792288 C114.308533,197.563147 116.489867,196.76515 117.032533,196.738506 C117.0432,196.74117 117.193867,196.778472 117.416533,196.834426 C117.6552,196.887714 117.969867,196.958321 118.2872,197.030261 C118.945867,197.164815 119.709867,197.310026 119.789867,197.368644 C120.7712,198.08804 118.820533,199.29103 120.2872,199.233744 C120.5192,199.221754 120.864533,199.163137 121.2992,199.059224 C121.665867,198.979291 122.228533,198.827419 122.813867,198.648902 C123.997867,198.285207 125.4392,197.777634 126.840533,197.176805 C128.112533,196.629264 127.960533,196.023107 129.184533,195.307707 C129.757867,194.974654 131.7672,194.540352 133.416533,193.693063 C134.417867,193.174832 134.557867,192.628623 135.4352,192.122382 C137.0512,191.200489 139.8792,190.227972 141.336533,188.659956 C141.505867,188.51208 140.904533,187.988519 140.992533,187.896597 C141.485867,187.405009 142.7272,186.802848 143.289867,186.231328 C143.376533,186.146066 143.444533,186.064801 143.497867,185.986201 C143.577867,185.935577 143.393867,185.938241 143.3312,185.916926 L143.057867,185.870298 C142.6712,185.809016 142.300533,185.751731 141.9392,185.694446 C141.1952,185.58254 140.488533,185.490617 139.980533,185.358728 C138.2592,184.955066 136.785867,184.523429 135.440533,184.087795 C133.101867,183.341754 131.0392,182.506456 128.860533,181.728442 C127.280533,181.156922 125.6432,180.675993 124.861867,180.231033 C124.381867,179.944607 124.064533,179.63953 123.752533,179.343778 C123.452533,179.060016 123.0672,178.67767 122.624533,178.417889 C122.400533,178.283335 122.193867,178.1661 122.001867,178.064852 C121.904533,178.016892 121.813867,177.968932 121.724533,177.924969 C121.6592,177.899657 121.385867,177.710483 121.236533,177.621224 C120.532533,177.1736 119.937867,176.819231 119.3912,176.499499 C118.3072,175.845382 117.409867,175.403087 116.305867,174.489187 C115.297867,173.681865 114.357867,172.79461 113.428533,171.904691 C112.508533,170.964147 111.609867,169.980972 110.645867,169.080395 C109.721867,168.255754 108.764533,167.301889 107.7752,166.350687 C106.784533,165.40215 105.7672,164.438959 104.824533,163.222647 C104.109867,162.303419 103.2792,161.234983 102.476533,159.873459 C101.6832,158.499946 100.844533,157.049164 100.052533,155.676983 C99.4218667,154.448681 98.9818667,153.757261 98.5378667,153.039197 C98.0912,152.322466 97.6272,151.581754 97.1712,150.22556 C96.8352,149.293009 96.5418667,148.36712 96.2712,147.438566 C96.0072,146.512677 95.8765333,145.602774 95.6858667,144.666228 C95.2818667,142.77315 95.1045333,140.913379 94.7845333,138.853774 C94.5898667,137.768019 94.4378667,136.696919 94.1992,135.56054 C94.0938667,134.998345 93.9872,134.43615 93.8845333,133.885946 C93.8112,133.358389 93.7512,132.841489 93.7165333,132.347238 C93.6578667,131.441332 93.5978667,130.367566 93.6112,129.316449 C93.6338667,128.265332 93.6592,127.143607 93.6845333,125.992573 C93.7285333,124.900157 93.7752,123.778432 93.8192,122.666033 C93.8552,121.56962 93.8792,120.550476 93.8698667,119.535328 C93.8658667,118.530838 93.7232,117.672892 93.6018667,116.798959 C93.4832,115.930355 93.3592,115.137687 93.3365333,114.472912 C93.3232,112.570509 93.5058667,110.859946 93.4285333,108.916244 C93.3778667,108.267456 93.3245333,107.589358 93.2738667,106.947231 C93.2232,106.301107 93.0832,105.776214 93.0098667,105.289956 C92.8472,104.333426 92.7072,103.765902 92.7032,104.016358 C92.6058667,102.746758 93.0072,101.495808 93.3858667,100.603224 C93.7952,99.6946537 94.4138667,98.9979054 95.0992,98.7581067 C95.8338667,98.499657 97.0338667,99.5920732 98.2085333,100.40206 C98.9205333,100.851016 99.1645333,100.497979 99.7352,100.894979 C101.164533,101.884815 101.268533,102.032691 103.396533,101.95409 C104.088533,101.934107 104.5112,102.22453 104.716533,102.043348 C104.817867,101.951426 104.8632,101.742268 104.8592,101.313295 C104.869867,100.880325 104.801867,100.238197 104.5992,99.2909926 C103.976533,96.1403047 103.769867,97.6443752 101.653867,93.2067678 C100.345867,90.7634859 99.2325333,88.1683315 97.4098667,85.3840027 C95.9805333,83.2311436 94.0032,80.9517242 92.8045333,79.1292544 C91.5312,77.1868852 91.1645333,75.6215329 90.1578667,74.2426906 C88.4205333,71.9712644 84.9032,67.3737913 82.7938667,64.6174389 C82.1165333,63.7168617 81.7458667,63.302543 80.9272,61.8730765 C79.3832,59.2019859 79.1525333,57.4288081 77.9645333,54.7457275 C77.3632,53.3429054 75.8498667,50.7863852 74.7485333,48.9199523 C73.7312,47.1734188 72.0445333,44.1865933 71.3032,43.2620362 C70.5085333,42.2029255 69.3018667,41.7553013 68.1165333,40.0314154 C67.1898667,38.6805497 66.3458667,37.4535799 65.6032,36.2465933 C64.8005333,35.0809054 64.1232,33.912553 63.3512,32.8188047 C62.5778667,31.7263886 61.8365333,30.6073282 60.9085333,29.5602074 C60.4392,29.0086705 60.0352,28.5597141 59.5605333,28.0601336 C59.0725333,27.5938584 58.5578667,27.1315799 58.0112,26.6772946 C57.1912,25.9658919 56.5592,25.1985362 55.8698667,24.8335094 C55.6645333,24.7282644 55.0285333,24.8481638 54.8698667,24.7282644 C53.8125333,23.9662376 53.8485333,23.1855597 53.0178667,22.5154557 C52.5125333,22.1144591 52.2792,22.6406839 51.3912,21.9732443 C48.6405333,19.8323752 45.7192,17.7714389 43.1432,15.8517174 C42.8965333,15.6598785 42.6565333,15.470704 42.4232,15.2881906 L42.0738667,15.0030966 L41.9018667,14.8605497 C41.8445333,14.8458953 41.7898667,14.8911906 41.7338667,14.9031805 C41.2952,15.0483919 40.8845333,15.1842779 40.5045333,15.3108383 C39.7552,15.5493047 39.1325333,15.687855 38.6472,15.6385631 C37.6792,15.5239926 37.1565333,14.6407342 37.6565333,12.306694 C37.7898667,11.860402 37.9498667,11.2249356 38.2445333,10.5401772 C38.2485333,10.5255228 38.3672,10.1818114 38.5072,9.77015705 C38.6565333,9.3598349 38.8352,8.91221074 38.9232,8.78565034 C39.1045333,8.56183826 39.6298667,8.01696242 40.3352,7.4467745 C40.5098667,7.30422752 40.6938667,7.15501946 40.8805333,7.00447919 C40.9738667,6.88591208 41.0685333,6.9511906 41.1645333,6.96984161 L41.4498667,7.04044899 C41.8312,7.13237181 42.2085333,7.21496913 42.5445333,7.27225436 C43.1752,7.52404295 43.6698667,7.6812443 43.8338667,7.62662349 C43.9138667,7.60797248 42.6445333,5.88941544 42.6792,5.44978456 C42.6898667,5.21265034 44.7338667,5.71223087 43.7338667,4.59050604 C43.2578667,4.06028456 42.8005333,3.76453289 42.2792,3.4594557 C42.0125333,3.42215369 41.7298667,3.38884832 41.4125333,3.33156309 C41.2552,3.30225436 41.0872,3.26628456 40.9098667,3.22098926 C40.7312,3.18901611 40.5445333,3.05712685 40.3392,3.21299597 C40.0525333,3.34222081 39.3072,3.12107315 39.1285333,3.24097248 C37.6672,4.10025101 35.2138667,5.93870738 32.8112,8.11554631 C30.4018667,10.3123685 28.1392,13.0953651 26.6845333,15.036402 C24.8698667,17.4610329 23.0738667,20.8501872 20.9792,24.8241839 C20.3445333,25.9885396 19.7498667,27.2434859 19.1152,28.5623785 C18.4565333,30.010496 17.9938667,31.1202309 17.4912,32.4471168 C16.5205333,35.0809054 15.5618667,38.093043 15.0565333,41.8179154 C14.7725333,43.6137409 14.5285333,46.3314591 14.6685333,48.4123785 C14.7325333,50.1655732 15.3925333,52.261147 15.8685333,53.9890295 C16.1112,54.7443953 16.2978667,55.4837745 16.6445333,56.2298148 L17.1232,57.3328886 C17.3072,57.695251 17.5192,58.0522846 17.7205333,58.4066537 C18.0978667,59.1247174 18.6098667,59.7828315 19.1072,60.4316201 C19.3338667,60.7486872 19.6392,61.0830732 19.9605333,61.4121302 C20.2605333,61.739855 20.6085333,62.0529255 20.9792,62.3513416 C22.4218667,63.5609926 24.3112,64.4109456 26.0685333,64.6960396 C27.8352,64.9984523 29.4045333,64.8532409 30.7352,64.5987879 C33.4058667,64.0592409 35.2738667,63.1093718 36.8338667,62.2913919 C38.3672,61.4494322 39.5405333,60.6634255 40.3765333,60.021298 C43.5805333,57.5367174 45.1218667,55.0361503 46.9272,53.3668852 C47.1725333,53.1350799 49.5632,51.4897946 52.1245333,49.1277779 C52.8565333,48.4550094 53.9005333,46.8177174 54.2565333,46.4886604 C55.4552,45.3789255 56.1898667,45.3949121 56.9885333,44.5756 C58.0805333,43.4458819 57.3485333,43.5697779 58.8778667,41.6886906 C59.9792,40.3311638 61.7125333,39.2427443 62.8685333,37.8758919 C63.8698667,36.6902208 64.7658667,35.4725765 65.6472,34.3175463 C66.1538667,33.6541034 67.0592,32.0807577 67.6298667,31.4865899 C68.4672,30.612657 70.1912,29.6214893 71.1512,28.7728685 C71.6032,28.3598819 72.2312,27.2328282 72.5725333,26.9357443 C74.0472,25.6421638 76.4338667,24.1354289 78.0245333,22.9191168 C81.8298667,20.0202174 85.4618667,17.2159054 89.9618667,15.9503013 C91.9072,15.4067577 93.8632,15.1802812 95.6685333,15.2495564 C99.9458667,15.526657 103.400533,16.8202376 105.0672,18.1950832 C106.3912,19.3008215 104.8912,19.0050698 105.5112,19.9749221 C105.852533,20.5824121 107.228533,21.3484356 107.145867,21.9599221 C107.0352,23.1149523 105.7312,23.1336034 104.261867,23.3067913 C102.8272,23.3960497 101.2592,23.6558315 100.6992,24.1034557 C104.596533,26.1297544 107.504533,27.8016839 109.4912,30.6552879 C111.176533,33.0466134 111.932533,36.1133718 112.753867,38.5166872 C113.9472,42.0910195 115.065867,45.2736805 115.680533,48.2698315 C115.9392,49.4182007 115.8592,50.5878852 116.033867,51.6429993 C116.165867,52.422345 116.537867,53.2016906 116.636533,53.9077644 C116.757867,54.736402 116.6832,56.3790228 116.813867,57.2995832 C117.112533,59.4457812 117.301867,58.2427913 117.260533,64.1111973 C117.157867,69.2921805 117.1832,69.0803584 115.896533,70.7149859 C114.777867,72.0964926 110.9432,69.9049993 109.7712,73.2914893 C108.753867,76.1957174 109.444533,79.5568953 108.9312,84.3022443 C108.9232,84.3781805 108.3432,85.4599389 108.320533,86.4551034 C108.2952,87.5328651 108.565867,88.4534255 107.760533,90.863402 C106.809867,93.8329087 106.645867,90.7941268 105.161867,93.9581369 C104.885867,97.264694 104.6112,100.399395 104.553867,103.551415 C104.508533,105.076801 104.581867,106.823335 104.729867,108.260795 C104.889867,109.715573 105.064533,111.154365 105.2752,112.587828 C105.4952,114.306385 106.192533,115.326862 106.568533,117.00412 C106.9472,118.590788 107.232533,120.37862 107.6872,122.239724 C108.133867,124.10216 108.4792,126.09915 109.128533,128.049513 C111.232533,135.12757 114.144533,142.009791 118.2792,151.08617 C118.3792,151.348617 119.141867,151.914808 119.509867,152.989905 C119.6552,153.404224 119.121867,153.047191 119.697867,154.139607 C120.556533,155.720946 121.2952,156.417694 122.221867,157.891123 C122.840533,158.826338 125.1032,162.95354 127.781867,167.012798 C130.425867,171.109358 133.3632,175.115328 134.3552,176.652704 C134.5632,176.993751 134.985867,178.349946 135.313867,178.964097 C136.3632,180.923785 136.973867,182.69563 136.757867,183.957238 C136.549867,185.189536 135.572533,185.825003 133.313867,185.008355 C131.2392,184.248993 130.7752,184.374221 136.364533,190.794164 C136.5672,191.027301 136.780533,191.233795 137.0112,191.436291 C137.256533,191.609479 137.513867,191.789328 137.792533,191.985164 C138.348533,192.376835 138.976533,192.845774 139.725867,193.595811 C140.2872,194.159338 141.364533,195.243761 142.712533,196.529348 C144.064533,197.802946 145.769867,199.127167 147.4192,200.378117 C149.437867,201.915493 151.161867,202.946627 152.4872,203.72464 C153.809867,204.50665 154.7552,205.03554 155.4152,205.536452 C156.2552,206.422375 156.680533,205.888157 157.1312,205.892154 C157.564533,205.810889 157.9152,205.76959 158.196533,205.756268 C160.2472,203.02656 159.573867,205.062184 162.437867,199.091197 C163.8312,196.2296 166.421867,191.829295 169.520533,187.338399 C170.312533,186.251311 171.128533,185.133583 171.952533,184.001201 C172.776533,182.975395 173.608533,181.936268 174.437867,180.901137 C175.6952,179.382412 176.969867,177.906318 178.1632,176.546127 C180.721867,173.663214 183.376533,170.842915 187.036533,168.046597 C187.7912,167.460422 188.728533,166.844939 189.672533,166.294734 C190.137867,166.008308 190.597867,165.727211 191.029867,165.4621 C191.4592,165.222301 191.8592,164.990496 192.204533,164.766684 C193.4192,163.978013 191.9432,164.02464 192.697867,163.454452 C192.921867,163.35054 196.428533,161.721241 198.4632,160.776701 C201.4312,159.353895 205.116533,157.618019 210.6592,155.491805 C213.0072,154.540603 214.429867,154.396724 216.029867,153.674664 C218.701867,152.538285 220.957867,151.191415 223.100533,149.952456 C224.189867,149.374274 225.181867,148.648217 226.268533,148.102009 C227.344533,147.531821 228.368533,146.848395 229.5592,146.316842 C229.793867,146.238241 230.7192,146.042405 230.900533,145.865221 C232.1632,144.743496 232.456533,144.513023 232.7352,144.426429 C233.004533,144.321184 233.309867,144.430426 234.425867,143.629764 C234.857867,143.340674 236.292533,141.79264 236.501867,141.668744 C237.553867,141.014627 238.092533,141.225117 238.685867,141.210462 C239.268533,141.181154 239.8952,140.888066 241.020533,138.948362 C241.0472,138.89907 241.0752,138.847113 241.116533,138.769845 C241.5912,137.768019 242.233867,135.982852 242.7592,133.600852 C243.2472,131.246828 243.612533,128.118788 243.409867,124.904154 C243.2272,121.706838 242.472533,118.510855 241.3712,115.8371 C240.277867,113.156684 238.912533,110.993167 237.848533,109.537056 C236.689867,107.942395 235.6192,106.724751 234.6872,105.726922 C233.757867,104.76906 232.9712,104.004368 232.228533,103.378228 C230.749867,102.103298 229.465867,101.229365 227.612533,100.39007 C226.297867,99.8038953 225.545867,99.3869121 224.524533,98.7860832 C223.500533,98.207902 222.2032,97.4485396 219.796533,96.4973383 C218.965867,96.1682812 217.960533,96.129647 216.261867,95.5634557 C214.560533,95.0212443 213.553867,95.0585463 212.744533,94.8387309 C211.057867,94.3498081 208.9432,93.313345 207.2472,92.9603081 C206.201867,92.7591436 205.064533,92.8190933 203.7552,92.6219255 C202.040533,92.3568148 201.025867,92.0290899 199.2512,91.8225966 C196.628533,91.514855 193.5072,91.5361705 192.4192,91.4096101 C190.5872,91.1684792 190.580533,90.7435027 189.1432,90.534345 C186.5752,90.1706503 182.829867,90.4291 181.409867,88.8717409 C180.684533,88.0804054 179.333867,87.6207913 179.289867,87.3690027 C179.089867,86.1287107 181.485867,85.8742577 186.4872,84.9816738 C186.641867,84.9696839 189.084533,84.7885027 191.333867,84.6219758 C193.5872,84.4354658 195.669867,84.207657 194.993867,83.7493752 C192.161867,81.8549658 186.313867,82.8088315 179.717867,82.9140765 C176.832533,82.9513785 173.0272,82.8128282 169.524533,82.8940933 C166.0232,82.9660329 162.825867,83.2591201 161.188533,83.9385497 C159.176533,84.7951638 156.176533,84.039798 152.017867,85.125553 C151.6672,85.212147 149.828533,85.882251 149.757867,85.9022342 C148.148533,86.1433651 145.492533,86.0154725 143.993867,86.4111403 C142.5432,86.7828282 143.477867,87.2784121 141.797867,87.6447711 C140.5152,87.9178752 137.421867,88.6599188 137.200533,88.7318584 C136.3592,88.9450128 135.465867,89.170157 134.568533,89.3966336 L97.9298667,98.6635195 L135.765867,98.0853383 C138.3232,98.046704 140.8992,98.1759289 142.1232,98.046704 C143.856533,97.8681872 142.129867,97.2966671 143.2112,97.0755195 C144.352533,96.837053 148.957867,96.8916738 150.892533,96.7224826 C151.6552,96.6532074 153.317867,95.5967611 157.4752,96.166949 C160.165867,97.7296369 158.564533,98.6395396 155.2352,99.3229658 C154.460533,99.4828315 154.189867,99.9158013 153.056533,99.9317879 C152.6312,99.9424456 151.388533,99.473506 150.8832,99.6013987 C150.268533,99.7586 150.2952,100.364758 149.7912,100.555264 C148.633867,100.99756 144.673867,101.525117 144.360533,102.498966 C147.428533,102.536268 148.705867,102.17657 150.873867,101.839519 C151.3232,101.768912 152.684533,101.951426 153.037867,101.850177 C153.9712,101.585066 153.996533,101.108134 155.209867,100.922956 C156.601867,100.701808 159.116533,100.958926 160.613867,100.728452 C164.0152,100.255516 166.5352,98.9326268 171.5032,99.0871638 C173.612533,99.1377879 175.8232,99.9224624 176.837867,99.889157 C179.008533,99.8944859 179.8072,99.1044826 182.3752,98.9672644 C183.2152,98.9179725 187.901867,98.9392879 192.977867,99.597402 C198.056533,100.211553 203.468533,101.645016 205.720533,103.029187 C205.7352,103.038513 205.892533,103.199711 206.116533,103.443506 C206.340533,103.687301 206.629867,104.012362 206.9112,104.349412 C207.4632,105.043496 207.957867,105.806855 207.909867,106.017345 C207.728533,106.758056 206.393867,105.940077 205.637867,106.082623 C204.7552,106.218509 205.3352,105.925422 205.517867,106.378375 C206.104533,107.93307 202.757867,105.922758 200.2792,105.842825 C199.432533,105.798862 198.924533,106.663469 197.872533,106.764717 C197.609867,106.787365 196.172533,106.512929 195.8432,106.522254 C194.225867,106.594194 191.7232,106.432996 189.0352,106.394362 C186.361867,106.323754 183.5152,106.353063 181.312533,106.566217 C179.348533,106.726083 177.7992,107.296271 176.0272,107.521415 C175.020533,107.67462 171.629867,107.516087 170.804533,108.010338 C170.645867,108.103593 171.033867,108.608503 170.7552,108.648469 C168.3472,108.976194 164.565867,108.671117 162.4232,109.121405 C159.785867,109.650295 160.3232,110.349707 158.1912,110.89858 C158.985867,112.108231 161.828533,111.027805 163.348533,111.717892 C163.0952,112.170845 160.269867,111.703238 160.232533,112.233459 C161.429867,112.848942 163.873867,112.322717 163.348533,111.717892 C162.2072,110.371023 169.068533,111.536711 170.529867,111.516728 C171.6272,111.476761 171.324533,111.026472 172.604533,111.046456 C174.197867,111.070436 176.053867,111.503405 177.604533,111.568684 C180.428533,111.645952 183.901867,111.471432 187.520533,111.813811 C188.736533,111.933711 191.993867,112.530543 195.0272,113.303228 C196.584533,113.646939 198.0192,114.095895 199.277867,114.384986 C200.500533,114.708714 201.4552,114.961835 202.017867,114.965832 C202.5392,114.984483 202.557867,114.219791 203.201867,114.41163 C203.6512,114.550181 204.3312,114.903217 205.152533,115.306879 C205.973867,115.71054 206.813867,116.25808 207.781867,116.657744 C208.668533,117.096043 209.616533,117.381137 210.581867,117.650244 C211.4472,117.977969 212.3912,118.253738 213.0832,118.717348 C213.4752,119.00111 213.952533,119.571298 214.421867,120.109513 C214.832533,120.681033 215.1832,121.241895 215.5152,121.481694 C215.872533,121.728154 216.164533,121.908003 216.4352,122.098509 C216.720533,122.282355 217.0152,122.45954 217.3432,122.711328 C217.749867,122.95912 218.257867,123.82506 218.769867,124.293999 C218.9872,124.503157 219.536533,124.385922 219.7072,124.585754 C219.932533,124.906818 220.0752,125.614224 220.320533,125.901983 C220.9472,126.581412 221.124533,126.985073 221.461867,127.547268 C221.6232,127.836358 221.812533,128.173409 222.0712,128.638352 C222.2672,129.14859 222.5152,129.798711 222.8512,130.673976 C223.016533,131.008362 223.168533,131.577217 223.377867,132.305939 C223.569867,133.038657 223.9312,133.889942 224.0672,134.963707 C224.236533,136.02415 224.544533,137.157865 224.5912,138.495409 C224.640533,139.154855 224.692533,139.827623 224.744533,140.507053 C224.777867,141.194476 224.7432,141.904546 224.741867,142.609288 C224.6992,148.263207 223.2312,154.266167 221.724533,155.766241 C220.6992,156.77606 220.1512,157.062486 219.8992,156.48164 C219.6472,155.903459 219.7192,154.435358 219.777867,152.03604 C219.808533,150.946288 220.113867,150.871684 219.965867,150.035053 C219.796533,149.162452 220.512533,147.028244 219.849867,146.095694 C218.5152,150.265526 218.432533,154.76708 217.736533,158.938244 C217.4072,160.877949 217.0912,163.227976 216.6272,165.39016 C215.612533,170.195459 214.437867,174.727654 213.724533,180.060509 C213.604533,181.018372 213.529867,182.045509 213.460533,183.06865 C213.416533,184.114439 213.364533,185.142909 213.240533,186.072795 C212.973867,187.843308 212.320533,190.194667 212.1592,192.045113 C212.121867,192.984325 212.536533,194.245932 212.5152,194.572325 C212.357867,196.258909 212.2952,198.112019 212.1752,199.998436 C212.0872,200.876365 212.1472,202.059372 212.1872,203.145127 C212.217867,204.268184 212.413867,205.235372 212.560533,206.273167 C211.517867,206.830033 211.132533,208.645842 209.633867,208.128942 C210.0792,209.93809 210.432533,211.39953 211.728533,214.222493 C212.345867,215.578687 212.933867,215.867778 213.6352,217.338543 C214.336533,218.793321 214.909867,221.152674 215.5432,222.499543 C216.060533,223.607946 216.8912,224.360647 217.249867,224.977462 C218.225867,226.771956 218.968533,228.724983 219.681867,231.000405 C219.9872,231.851691 220.165867,232.724291 220.4112,233.566251 C220.536533,234.398885 220.7832,235.227523 220.760533,235.924271 C220.768533,236.471811 220.780533,236.966063 220.7192,237.361731 C220.589867,237.820013 220.2912,238.731248 219.768533,239.605181 C219.296533,240.508422 218.6392,241.375694 218.2232,242.000503 C218.180533,242.055123 218.224533,242.484097 218.001867,243.088922 C217.7592,243.656446 217.1752,244.377174 215.9032,244.704899 C214.580533,244.989993 213.8032,244.803483 213.368533,244.48908 C212.9352,244.184003 212.8312,243.744372 212.7912,243.29808 C212.732533,242.603996 214.145867,241.799338 215.0272,240.469788 C215.9392,239.168214 216.241867,237.610855 215.709867,237.147244 C215.2832,237.100617 215.285867,237.713436 215.005867,238.303607 C214.936533,238.466137 214.797867,238.791197 214.557867,239.094942 C214.345867,239.422667 214.1032,239.78503 213.864533,240.032821 C212.872533,241.214496 212.0392,242.001835 210.716533,242.761197 C210.109867,243.102244 209.829867,242.985009 209.357867,243.294083 C208.9672,243.528553 208.189867,243.90557 207.109867,244.353194 C206.528533,244.594325 205.8912,244.860768 205.217867,245.140533 C204.212533,245.472254 203.1392,245.886573 202.0552,246.327536 C200.996533,246.77516 199.832533,247.308046 198.8792,247.804962 C197.929867,248.30854 196.996533,248.804123 196.108533,249.275728 C194.341867,250.225597 192.7792,251.076882 191.577867,251.609768 C189.3112,252.658221 189.821867,252.474375 187.184533,253.172456 C185.992533,253.51217 186.0192,253.02458 183.861867,254.331483 C178.8352,257.419556 178.653867,259.331285 175.545867,262.312781 C174.949867,262.886966 172.4912,264.903939 171.3352,265.979036 C168.9392,268.211828 167.901867,269.518731 165.1632,270.597825 C164.6472,270.796325 163.692533,270.744368 162.985867,271.275922 C161.528533,272.371003 159.9992,273.821785 158.3352,275.364489 C157.505867,276.154493 156.649867,276.97114 155.777867,277.80111 C154.8792,278.600439 153.956533,279.410426 153.012533,280.204426 C151.237867,281.729811 149.549867,283.076681 147.7352,284.432875 C145.888533,285.830368 143.565867,287.211875 142.217867,288.272318 C139.472533,290.418516 137.124533,292.957717 133.528533,295.698083 C132.6592,296.358862 131.3912,296.82114 130.692533,297.42863 C128.8472,299.053932 124.413867,301.984805 121.9272,304.294865 C117.809867,306.250556 123.117867,303.159818 117.789867,305.708345 C115.8272,306.702177 115.6112,306.461046 114.332533,308.320818 C114.512533,309.020231 117.7112,306.620912 119.193867,306.06005 C118.320533,307.697342 114.697867,309.58509 112.4912,311.547442 C110.937867,312.95959 108.464533,316.415355 106.5952,317.750234 C104.489867,319.16105 106.020533,317.650318 104.221867,319.656634 C103.5832,320.441308 103.281867,321.034144 102.385867,322.16253 C101.9352,322.73405 101.3352,323.409483 100.648533,324.14753 C99.9858667,324.897566 99.3285333,325.754181 98.6032,326.60813 C97.9218667,327.479399 97.0778667,328.314697 96.5232,329.229929 C95.9258667,330.127842 95.3592,330.99911 94.8752,331.799771 C94.6365333,332.208761 94.4338667,332.644395 94.2925333,333.078697 C94.1698667,333.51966 94.0512,333.936644 93.8618667,334.280355 C93.5498667,334.853207 92.6205333,335.536634 92.2818667,336.101493 C91.9085333,336.553113 92.2272,338.094486 90.1658667,340.143432 C89.2738667,340.512456 89.5698667,338.89115 89.5245333,338.848519 C89.3512,338.732617 88.3072,339.547932 88.2578667,338.969751 C88.2192,338.452852 88.7432,337.183251 89.3792,335.673852 C89.6405333,334.901167 90.1992,334.159123 90.6192,333.399761 C91.0632,332.648392 91.4778667,331.914342 91.8005333,331.273546 C92.1005333,330.634083 92.0805333,330.318348 92.6005333,329.550993 C93.0792,328.860905 93.7018667,327.964325 94.3618667,327.011791 C94.5298667,326.77066 94.6992,326.525533 94.8685333,326.279073 L95.4565333,325.575664 C95.8498667,325.105392 96.2392,324.639117 96.6085333,324.198154 L97.4258667,325.18266 C100.036533,323.556026 97.1232,323.842452 97.7018667,322.464942 C97.5512,322.8726 98.1805333,321.853456 99.0672,320.811664 C99.9205333,319.749889 100.861867,318.552228 100.957867,318.460305 C101.5232,317.775546 106.001867,314.691469 106.432533,313.666996 C107.2712,311.719298 106.953867,313.425865 109.712533,310.954607 C110.4352,310.313811 110.928533,309.550452 111.980533,308.50866 C113.173867,307.40159 115.337867,305.877536 117.0432,304.294865 C117.212533,304.128338 118.769867,303.111858 118.821867,303.013274 C119.841867,301.22411 119.0432,302.857405 122.405867,300.451426 C122.844533,300.137023 122.7232,299.649432 123.096533,299.388318 C124.397867,298.477083 126.685867,297.207483 127.7312,296.381509 C129.353867,295.111909 130.165867,293.64514 131.852533,292.246315 C132.828533,291.438993 135.0512,290.370556 136.5432,289.262154 C137.497867,288.554748 138.1152,287.684811 139.108533,286.954758 C140.032533,286.260674 141.313867,285.814382 141.084533,285.978244 C141.925867,285.378748 141.1952,285.374751 141.7912,284.913805 C143.2632,283.788083 145.1392,282.491838 147.0312,281.107667 C148.944533,279.752805 150.860533,278.292697 152.433867,276.875221 C154.2792,275.277895 155.300533,273.63261 157.0512,271.987325 C157.868533,271.247946 159.757867,270.140875 160.501867,269.461446 C162.4512,267.702922 164.320533,265.326251 166.6112,263.025516 C168.228533,261.408207 170.6552,259.561758 172.489867,257.817889 C172.824533,257.496825 172.7712,256.913315 173.064533,256.652201 C174.637867,255.285348 176.649867,253.861211 178.372533,252.053395 C179.205867,251.126174 182.856533,248.090056 184.869867,246.41413 C186.6712,244.915389 190.088533,242.749207 193.4032,240.648305 C194.1992,240.159382 194.829867,239.74906 195.357867,239.396023 C195.621867,239.216174 195.860533,239.054976 196.0832,238.904436 C196.2992,238.753895 196.613867,238.598026 196.8512,238.460808 C197.853867,237.927922 198.724533,237.436335 200.001867,237.088627 C200.676533,236.899452 201.5472,236.691627 202.4032,236.587714 C203.176533,236.499788 204.556533,236.329264 204.288533,236.481137 C204.832533,236.575724 205.445867,236.698288 205.893867,236.654325 C207.008533,236.551744 208.028533,235.982889 208.5072,234.966409 C208.980533,233.916623 208.8392,232.625707 208.6312,231.71314 C208.5992,231.501318 208.6752,231.156274 208.609867,230.884503 C208.600533,230.823221 208.584533,230.771264 208.561867,230.723305 C208.400533,230.416895 207.993867,229.846707 207.6312,229.39109 C207.268533,228.915489 206.673867,228.284019 206.1072,227.922989 C205.981867,227.841724 205.9312,227.76712 205.881867,227.695181 C205.828533,227.605922 205.797867,227.607254 205.641867,227.41808 C205.113867,226.438902 203.193867,223.698536 202.2992,220.757006 C202.0792,220.018959 201.9112,219.304892 201.7752,218.604147 C201.632533,217.851446 201.520533,217.093415 201.420533,216.348707 C201.221867,214.718077 201.0232,213.099436 200.808533,211.348905 C201.528533,211.88712 202.292533,213.652305 203.053867,215.208332 C203.821867,216.640462 204.581867,217.844785 205.289867,217.339875 C204.937867,216.924224 204.4632,215.942382 203.945867,214.815328 C203.424533,213.556385 202.8432,212.154895 202.3752,211.022513 C202.189867,210.549577 201.864533,209.585053 201.509867,208.179566 C201.1872,206.659509 200.7712,204.912976 200.5752,202.577603 C200.5232,202.019405 200.469867,201.455879 200.417867,200.892352 C200.3952,200.468707 200.3752,200.043731 200.353867,199.622751 C200.313867,198.780791 200.2752,197.952154 200.236533,197.167479 C200.133867,195.57415 200.144533,194.228613 200.1032,193.274748 C200.064533,192.466093 199.789867,190.886087 199.7992,190.313234 C199.817867,189.479268 200.108533,187.867288 200.405867,186.030164 C200.6952,184.177053 201.141867,182.32261 201.317867,180.757258 C201.441867,179.726123 201.245867,179.411721 201.192533,178.660352 C201.148533,177.936959 201.240533,176.720647 202.0592,174.240063 C202.1112,174.093519 202.584533,174.541144 202.672533,174.417248 C202.7552,174.305342 203.2272,173.071711 203.705867,171.75415 C204.180533,170.417939 204.673867,169.143009 204.769867,168.683395 C205.8912,171.202613 204.621867,177.815728 204.765867,182.924771 C206.328533,180.73461 206.6432,174.76762 207.460533,170.77364 C207.8712,168.759332 207.816533,167.219291 208.332533,164.987832 C208.565867,163.982009 208.917867,162.878936 209.249867,161.810499 C209.5792,160.738066 209.929867,159.609681 210.085867,158.682459 C210.296533,157.478137 210.0432,157.404865 210.113867,156.514946 C210.272533,154.79106 210.941867,150.875681 211.053867,148.757459 C211.164533,145.592117 210.737867,142.510704 211.005867,140.527036 C211.0232,140.453764 211.509867,139.393321 211.8432,138.428798 C212.036533,137.927885 212.2272,137.433634 212.369867,137.06461 C212.464533,136.748875 212.5312,136.537053 212.5192,136.542382 C212.760533,136.431808 212.912533,136.646295 213.1072,137.013986 C213.269867,137.416315 213.409867,138.038459 213.7392,138.597989 C214.420533,139.776999 214.600533,139.934201 214.616533,140.277912 C214.624533,140.63761 214.568533,141.134526 214.496533,143.34467 C214.4592,143.893543 214.821867,144.674221 214.824533,145.120513 C214.8512,145.865221 214.744533,146.675207 214.665867,147.439899 C214.593867,148.215248 214.524533,148.958623 214.461867,149.632724 C214.1872,152.907308 214.241867,155.80754 213.7552,158.77305 C213.309867,161.662623 212.0072,165.587328 211.573867,168.431607 C211.409867,169.510701 211.565867,170.645748 211.4272,172.023258 C211.2992,173.122335 210.392533,176.634053 211.312533,175.682852 C212.112533,174.090855 212.525867,172.577459 212.809867,171.094704 C213.089867,169.58264 213.232533,168.135855 213.497867,166.697063 C213.7032,165.547362 214.001867,163.870103 214.280533,162.312744 C214.333867,161.993013 214.592533,160.694103 214.649867,160.169211 C214.7032,159.702936 214.3272,159.176711 214.364533,158.968885 C214.464533,158.394701 214.7392,157.679301 215.008533,156.969231 C215.260533,156.276479 215.5112,155.58506 215.596533,155.026862 C215.685867,154.432694 215.2352,154.084986 215.277867,153.874496 C215.5912,152.113308 216.0312,150.814399 216.2352,149.119821 C216.389867,147.565127 216.4992,146.21959 216.549867,144.567644 C216.7312,141.58215 216.8992,139.725043 216.388533,137.207157 C216.1152,136.36653 215.5272,135.874942 215.364533,135.210167 C215.2752,134.686607 215.0912,134.26163 214.984533,133.815338 C214.8592,133.379704 214.821867,132.9081 214.708533,132.504439 C214.409867,131.757066 214.3192,130.920436 213.844533,130.39954 C212.957867,129.016701 211.9192,128.391892 210.3792,127.303472 C210.136533,127.075664 209.204533,126.853184 209.021867,126.725291 C208.700533,126.474835 208.549867,126.233704 208.3312,126.024546 C208.137867,125.806063 207.9552,125.594241 207.600533,125.390412 C205.8552,124.493832 202.460533,123.886342 199.688533,122.648714 C199.164533,122.400922 198.0112,121.716164 196.9592,121.072704 C196.4032,120.762298 195.881867,120.470543 195.497867,120.256056 C195.112533,120.034909 194.8592,119.873711 194.8592,119.873711 C194.404533,119.110352 198.3352,118.88654 201.900533,119.444738 C204.681867,119.852395 207.416533,120.698352 209.7312,121.850717 C212.077867,123.004415 214.040533,124.383258 215.733867,126.076503 C216.1912,126.440197 216.501867,126.841194 216.880533,127.200892 C217.252533,127.561922 217.648533,127.912295 217.885867,128.373241 C218.737867,129.582892 219.065867,131.098952 219.537867,132.044825 C220.012533,133.399687 221.9112,135.303422 221.3632,139.910221" id="Fill-3" fill="#1D1D1B" mask="url(#mask-2)"></path>
                    </g>
                </g>
            </g>
        </g>
    </g>
</svg>