<?xml version="1.0" encoding="UTF-8"?>
<svg width="35px" height="37px" viewBox="0 0 35 37" version="1.1" xmlns="http://www.w3.org/2000/svg" xmlns:xlink="http://www.w3.org/1999/xlink">
    <title>Group</title>
    <g id="Главная" stroke="none" stroke-width="1" fill="none" fill-rule="evenodd">
        <g id="members-copy-2" transform="translate(-232, -773)">
            <g id="Group-2" transform="translate(216, 759)">
                <g id="Group" transform="translate(16.25, 14.2188)">
                    <polygon id="Shape" points="0 0 34.53125 0 34.53125 36.5625 0 36.5625"></polygon>
                    <path d="M22.7209568,21.3472877 L21.5732305,21.3472877 L21.1664415,20.9396441 C22.5902032,19.218482 23.4473658,16.9839909 23.4473658,14.5532268 C23.4473658,9.13307604 19.2196653,4.73958333 14.0040485,4.73958333 C8.78843166,4.73958333 4.56073113,9.13307604 4.56073113,14.5532268 C4.56073113,19.9733776 8.78843166,24.3668704 14.0040485,24.3668704 C16.3430855,24.3668704 18.4932563,23.4760935 20.1494688,21.996498 L20.5417297,22.4192396 L20.5417297,23.6119747 L27.80582,31.1458333 L29.9705189,28.8962443 L22.7209568,21.3472877 L22.7209568,21.3472877 Z M13.6821934,20.9895833 C10.077044,20.9895833 7.16686321,17.9652778 7.16686321,14.21875 C7.16686321,10.4722222 10.077044,7.44791667 13.6821934,7.44791667 C17.2873428,7.44791667 20.1975236,10.4722222 20.1975236,14.21875 C20.1975236,17.9652778 17.2873428,20.9895833 13.6821934,20.9895833 L13.6821934,20.9895833 Z" id="Shape" fill="#8B8B8B"></path>
                </g>
            </g>
        </g>
    </g>
</svg>