<?xml version="1.0" encoding="UTF-8"?>
<svg width="22px" height="22px" viewBox="0 0 22 22" version="1.1" xmlns="http://www.w3.org/2000/svg" xmlns:xlink="http://www.w3.org/1999/xlink">
    <title>Shape</title>
    <g id="Главная" stroke="none" stroke-width="1" fill="none" fill-rule="evenodd">
        <g id="school" transform="translate(-174, -1313)" fill="#1E8EE4">
            <g id="Group-10" transform="translate(150, 1249)">
                <g id="instagram" transform="translate(13, 53)">
                    <path d="M21.9999782,12.9820221 C24.9371191,12.9820221 25.2849947,12.9932002 26.4449003,13.0461217 C27.5173894,13.0950697 28.0998311,13.2742691 28.4874851,13.4248682 C29.0008931,13.6244152 29.3673699,13.8628238 29.752273,14.247727 C30.1371762,14.6326301 30.3755848,14.9991069 30.5750882,15.5125149 C30.7257309,15.9001689 30.9049303,16.4826106 30.9538783,17.5550561 C31.0067998,18.7150053 31.0179779,19.0628809 31.0179779,22.0000218 C31.0179779,24.9371627 31.0067998,25.2850383 30.9538783,26.4449439 C30.9049303,27.5174331 30.7257309,28.0998748 30.5750882,28.4875288 C30.3755848,29.0009368 30.1371762,29.3674135 29.752273,29.7523167 C29.3673699,30.1372199 29.0008931,30.3756284 28.4874851,30.5751318 C28.0998311,30.7257746 27.5173894,30.904974 26.4449003,30.953922 C25.2851693,31.0068434 24.9372937,31.0180216 21.9999782,31.0180216 C19.0626626,31.0180216 18.714787,31.0068434 17.5550561,30.953922 C16.4825669,30.904974 15.9001252,30.7257746 15.5125149,30.5751318 C14.9990632,30.3756284 14.6325865,30.1372199 14.2476833,29.7523167 C13.8627801,29.3674135 13.6243716,29.0009368 13.4248682,28.4875288 C13.2742254,28.0998748 13.095026,27.5174331 13.046078,26.4449876 C12.9931566,25.2850383 12.9819784,24.9371627 12.9819784,22.0000218 C12.9819784,19.0628809 12.9931566,18.7150053 13.046078,17.5550997 C13.095026,16.4826106 13.2742254,15.9001689 13.4248682,15.5125149 C13.6243716,14.9991069 13.8627801,14.6326301 14.2476833,14.247727 C14.6325865,13.8628238 14.9990632,13.6244152 15.5125149,13.4248682 C15.9001252,13.2742691 16.4825669,13.0950697 17.5550124,13.0461217 C18.7149617,12.9932002 19.0628373,12.9820221 21.9999782,12.9820221 M22.5819068,11.0001899 C22.6730542,11.0002548 22.7613746,11.000337 22.8470078,11.0004378 L23.5489287,11.0018759 C24.539693,11.0049884 25.0860144,11.0124121 25.5717164,11.0273206 L25.777282,11.0341774 L25.982139,11.0420063 C26.1544228,11.0489508 26.3329624,11.0569657 26.5352423,11.0661955 C27.7061077,11.1196409 28.5056933,11.3055647 29.205418,11.5775076 C29.9287652,11.8586201 30.5422088,12.2347467 31.153731,12.846269 C31.7652533,13.4577912 32.1413799,14.0712348 32.4224924,14.794582 C32.6944353,15.4943067 32.8803591,16.2938923 32.9338045,17.4647577 C32.9448803,17.7074936 32.9542065,17.9160434 32.9620331,18.1206205 L32.969369,18.3249926 C32.9899327,18.9408502 32.9977487,19.6115951 32.9995622,21.1529922 L32.9995622,22.8470514 C32.997648,24.4740817 32.9890457,25.1310335 32.9658226,25.7773257 L32.9579937,25.9821826 C32.9510492,26.1544665 32.9430343,26.3330061 32.9338045,26.5352859 C32.8803591,27.7061513 32.6944353,28.5057369 32.4224924,29.2054616 C32.1413799,29.9288089 31.7652533,30.5422524 31.153731,31.1537747 C30.5422088,31.765297 29.9287652,32.1414236 29.205418,32.4225361 C28.5056933,32.694479 27.7061077,32.8804027 26.5352423,32.9338482 C26.3329624,32.943078 26.1544228,32.9510915 25.982139,32.9580339 L25.777282,32.9658598 C25.1309899,32.9890725 24.474038,32.9976546 22.8470078,32.9995635 L21.1529498,32.9995635 C19.6115575,32.9977551 18.9408288,32.9899574 18.3249679,32.9694046 L18.1205939,32.9620719 C17.916014,32.9542483 17.707459,32.9449239 17.4647141,32.9338482 C16.2938487,32.8804027 15.4942631,32.694479 14.7945384,32.4225361 C14.0711911,32.1414236 13.4577476,31.765297 12.8462253,31.1537747 C12.234703,30.5422524 11.8585764,29.9287652 11.5774639,29.2054616 C11.305521,28.5057369 11.1195973,27.7061513 11.0661518,26.5352859 C11.056922,26.3330061 11.0489085,26.1544665 11.0419661,25.9821826 L11.0341402,25.7773257 L11.0272869,25.5717601 C11.0123874,25.0860581 11.0049766,24.5397367 11.0018711,23.5489723 L11.0004365,22.8470514 C11.000336,22.7614183 11.000254,22.6730979 11.0001893,22.5819504 L11.0001893,21.4180932 C11.000254,21.3269458 11.000336,21.2386254 11.0004365,21.1529922 L11.0018711,20.4510713 C11.006973,18.8233871 11.0236948,18.3952452 11.0661518,17.4647577 C11.1195973,16.2938923 11.305521,15.4943067 11.5774639,14.794582 C11.8585764,14.0712348 12.234703,13.4577912 12.8462253,12.846269 C13.4577476,12.2347467 14.0711911,11.8586201 14.7945384,11.5775076 C15.4942631,11.3055647 16.2938487,11.1196409 17.4647141,11.0661955 C18.3952361,11.0237385 18.8233577,11.0069892 20.4510321,11.0018759 L21.1529498,11.0004378 C21.2385827,11.000337 21.3269029,11.0002548 21.4180501,11.0001899 Z M22.0218254,16.3690476 C18.8998963,16.3690476 16.3690476,18.8998963 16.3690476,22.0218254 C16.3690476,25.1437545 18.8998963,27.6746032 22.0218254,27.6746032 C25.1437545,27.6746032 27.6746032,25.1437545 27.6746032,22.0218254 C27.6746032,18.8998963 25.1437545,16.3690476 22.0218254,16.3690476 Z M22.0218254,18.3524685 C24.0483308,18.3524685 25.6911823,19.99532 25.6911823,22.0218254 C25.6911823,24.0483308 24.0483308,25.6911823 22.0218254,25.6911823 C19.99532,25.6911823 18.3524685,24.0483308 18.3524685,22.0218254 C18.3524685,19.99532 19.99532,18.3524685 22.0218254,18.3524685 Z M27.849228,14.797619 C27.1259912,14.797619 26.5396825,15.3838844 26.5396825,16.1071212 C26.5396825,16.830358 27.1259912,17.4166667 27.849228,17.4166667 C28.5724648,17.4166667 29.1587302,16.830358 29.1587302,16.1071212 C29.1587302,15.3838844 28.5724648,14.797619 27.849228,14.797619 Z" id="Shape"></path>
                </g>
            </g>
        </g>
    </g>
</svg>